<svg xmlns="http://www.w3.org/2000/svg" viewBox="0 0 187.87 67.6"><defs><style>.a{isolation:isolate;}.b{mix-blend-mode:multiply;}.c,.d,.e{fill:none;stroke-miterlimit:10;stroke-width:0.42px;}.c{stroke:#40458f;}.d{stroke:#008c33;}.e{stroke:#e3000a;}</style></defs><title>logoArtboard 2</title><g class="a"><path d="M39.1,48.34c0,7.68-5.83,11.77-14.23,11.77-9.72,0-16-5.22-16.17-15.45L0,44.25c0,14.33,9.42,23,24.77,23C39,67.28,48,59.7,48,49c0-8.4-5.94-14.33-13.82-15.46A15,15,0,0,0,46.68,18.56C46.68,7.71,38.8.34,24.57.34,10,.34,1.13,10.06,1.13,23.37l8.59.3C9.72,13.44,15.35,7.5,24.46,7.5c8.91,0,13.41,4.81,13.41,11.77,0,8.29-6.24,11.06-13,11.06A45.11,45.11,0,0,1,18.73,30v7.27A47.67,47.67,0,0,1,24.87,37C33,37,39.1,41,39.1,48.34"/><g class="b"><path class="c" d="M118,33.8l-.07-.32-.25-.25-.38-.31-.57-.32-.69-.25-.82-.25-1-.32-1.07-.25-1.27-.25L110.46,31l-1.52-.19-1.64-.19-1.7-.25-1.83-.12-2-.19-2-.13-2.08-.13-2.15-.12-2.14-.07-2.28-.12H88.93l-2.27-.07H82.12l-2.28.07H77.57l-2.27.12-2.15.07L71,29.82,68.92,30l-2,.13-2,.19-1.83.12-1.7.25-1.65.19L58.32,31l-1.39.26-1.26.25-1.07.25-1,.32-.82.25-.7.25-.57.32-.38.31-.25.25-.06.32.06.32.25.25.38.31.57.32.7.25.82.25,1,.32,1.07.25,1.26.25,1.39.26,1.51.19,1.65.19,1.7.25,1.83.12,2,.19,2,.13,2.09.13,2.14.12L75.3,38l2.27.12h2.27l2.28.07h4.54l2.27-.07H91.2L93.48,38l2.14-.07,2.15-.12,2.08-.13,2-.13,2-.19,1.83-.12,1.7-.25,1.64-.19,1.52-.19,1.38-.26,1.27-.25,1.07-.25,1-.32.82-.25.69-.25.57-.32.38-.31.25-.25Zm-.07,2.08-.06-.31-.19-.32-.38-.31-.57-.32-.63-.32-.82-.31-1-.38-1.07-.32L111.91,33l-1.33-.32-1.51-.31L107.49,32l-1.77-.31L104,31.46l-1.89-.31-2-.25L98,30.64l-2.08-.25-2.21-.19L91.46,30l-2.21-.19-2.34-.13-2.27-.19-2.27-.12-2.27-.13-2.28-.06-2.21-.06L73.41,29H67.22l-2,.07-1.83.06-1.7.06-1.64.13-1.52.12-1.39.19-1.26.13-1.2.19-.94.25-.89.19-.69.25-.57.26-.38.25-.25.31-.13.26.06.31.19.32.38.31.57.32.63.31.82.32,1,.38,1.08.31,1.26.32,1.32.32,1.52.31,1.58.32,1.76.31,1.77.26,1.89.31,2,.25,2.09.26,2.08.25,2.21.19,2.21.25,2.21.19,2.33.13,2.28.19,2.27.12,2.27.13,2.27.06,2.21.06,2.21.07h6.19l2-.07,1.83-.06,1.71-.06,1.64-.13,1.51-.12,1.39-.19,1.26-.13,1.2-.19,1-.25.88-.19.7-.25.57-.26.38-.25.25-.31Zm-.19,2-.06-.25-.19-.38-.31-.31-.51-.38-.69-.32-.76-.38-1-.38-1.07-.44-1.26-.38-1.33-.44-1.45-.38-1.58-.38-1.7-.44L104,32.66l-1.83-.44-2-.38-2-.38-2.09-.37-2.14-.32-2.21-.38-2.27-.31-2.27-.32-2.28-.25-2.27-.32-2.21-.25-2.27-.19-2.21-.25-2.21-.13-2.15-.19-2-.12-2-.07-2-.12H63.75L62,27.8H60.4l-1.51.07-1.39.06-1.33.13L55,28.12l-1,.19-.89.12-.69.26-.57.19-.44.25-.25.25-.13.32.06.25.19.38.32.31.5.38.7.32.76.38.94.38,1.08.44,1.26.38,1.32.44,1.46.38,1.57.38,1.71.44,1.83.38,1.83.44,2,.38,2,.38,2.08.37,2.15.32,2.21.38,2.27.31,2.27.32,2.27.25,2.28.32,2.2.25,2.28.19,2.21.25,2.2.13,2.15.19,2,.12,2,.07,2,.12H105l1.7.07h1.64l1.52-.07,1.39-.06,1.32-.13,1.14-.06,1-.19.88-.12.7-.26.56-.19.45-.25.25-.25ZM117.4,40v-.32l-.19-.32-.32-.37-.5-.38-.63-.44-.76-.38-1-.45-1.07-.5-1.14-.44-1.32-.51-1.45-.5-1.58-.51-1.64-.5-1.77-.51-1.83-.5-2-.51-2-.5-2.08-.51-2.14-.5-2.15-.51-2.21-.44L87.42,30l-2.21-.44-2.27-.38-2.28-.44-2.21-.32L76.25,28l-2.15-.31L72,27.42l-2-.25-2-.25L66,26.73l-1.83-.13-1.77-.12-1.64-.13-1.51-.06H56.62l-1.14.06-1.07.06-.89.13-.69.19-.57.13-.44.25-.32.25-.12.25v.32l.19.32.31.37.51.38.63.44.76.38.94.45,1.08.5,1.13.44,1.33.51,1.45.5,1.58.51,1.64.5,1.76.51,1.84.5,2,.51,2,.5,2.08.51,2.15.5,2.15.51,2.21.44,2.27.44,2.21.44,2.27.38,2.27.44,2.21.32,2.21.38,2.15.31,2.14.25,2,.26,2,.25,1.9.19,1.83.13,1.76.12,1.64.13,1.52.06h2.65l1.14-.06,1.07-.07.88-.12.7-.19.57-.13.44-.25.31-.25ZM117,42v-.32l-.19-.38-.25-.38-.51-.38-.57-.44-.76-.5-.88-.51-1-.5-1.2-.57-1.26-.57-1.39-.57-1.58-.57-1.57-.63L104,35.06l-1.83-.63-1.9-.63-2-.63-2-.63L94.17,32,92,31.34l-2.15-.63-2.21-.57-2.21-.57L83.25,29,81,28.5,78.83,28l-2.21-.44-2.14-.5-2.08-.38-2-.38-2-.38-1.9-.25-1.83-.32-1.7-.19-1.64-.25-1.52-.13-1.39-.12-1.26-.07H54.91l-.88.07-.7.12-.63.13-.44.19-.32.25-.12.25v.32l.19.38.25.38.51.38.56.44.76.5.88.51,1,.5,1.2.57,1.27.57,1.38.57,1.58.57,1.58.63,1.77.63,1.83.63,1.89.63,2,.63,2,.63,2.14.57,2.15.63,2.15.63,2.21.57,2.2.57,2.21.57,2.28.5,2.14.51,2.21.44,2.15.5,2.08.38,2,.38,2,.38,1.89.25,1.83.32,1.71.19,1.64.25,1.51.13,1.39.12,1.27.07h2.2l.89-.07.69-.12.63-.13.45-.19.31-.25Zm-.57,2v-.31l-.13-.32L116,43l-.44-.44L115,42l-.76-.51-.82-.57-1-.57-1.13-.63L110,39.1l-1.32-.69-1.52-.7L105.6,37l-1.71-.76-1.77-.69-1.83-.76-2-.76-2-.76-2-.75-2.09-.76-2.14-.69-2.21-.76-2.15-.7-2.21-.69-2.14-.63-2.21-.63L77,27.05l-2.08-.57-2.08-.57-2-.5-2-.45L67,24.52l-1.83-.38-1.7-.31-1.58-.32-1.52-.25L59,23.07l-1.26-.13-1.2-.06-1-.06h-.88l-.76.06-.57.13-.44.12-.31.26-.19.25V24l.12.32.26.38.44.44.57.5.75.51.82.57,1,.57,1.14.63,1.26.63,1.33.69,1.51.7,1.58.69,1.7.76,1.77.69,1.83.76,2,.76,2,.75,2,.76,2.08.76,2.15.69,2.21.76,2.14.7,2.21.69,2.15.63,2.21.63,2.14.63,2.09.57,2.08.57,2,.5,2,.45,1.83.44,1.83.38,1.7.31,1.58.32,1.51.25,1.39.19,1.26.13,1.2.06,1,.06h.89l.75-.06.57-.13.44-.12.32-.26Zm-.7,2,.07-.32-.13-.31-.25-.44-.44-.45-.51-.5-.69-.57-.82-.63-1-.63-1.07-.7-1.2-.75-1.33-.7-1.45-.82-1.58-.82-1.64-.82-1.7-.82-1.83-.88-1.9-.82-1.89-.89-2-.88-2.08-.89-2.09-.88-2.08-.82L86,29.76l-2.15-.82-2.15-.82-2.14-.76-2.09-.76-2.08-.69-2-.69-2-.64L69.49,24l-1.89-.51L65.83,23l-1.64-.45-1.64-.37-1.45-.38-1.39-.26-1.26-.25-1.14-.12-1-.13L55.42,21l-.76.06-.63.06-.44.13-.32.19-.19.25L53,22l.12.31.26.44.44.45.5.5.7.57.82.63.94.63,1.08.7,1.2.75,1.32.7,1.45.82,1.58.82,1.64.82,1.71.82,1.83.88,1.89.82,1.9.89,2,.88,2.08.88,2.08.89,2.08.82,2.15.82,2.15.82,2.14.82,2.15.76,2.08.76,2.08.69,2,.69,2,.64,1.89.56,1.9.51,1.76.5,1.65.44,1.64.38,1.45.38,1.39.25,1.26.26,1.14.12,1,.13.88.06.76-.06.63-.06.44-.13.32-.19Zm-.82,1.89.07-.25-.07-.38-.25-.44-.38-.51-.5-.5-.63-.63-.82-.63-.89-.76L110.33,43l-1.14-.83-1.26-.82-1.39-.88L105,39.61l-1.58-1-1.64-.95L100,36.77l-1.83-1-1.89-1-2-1-2-1-2.08-1-2-1-2.08-1-2.08-.94L82.05,28,80,27.05l-2.08-.82-2-.89-2-.76-2-.75-1.83-.7-1.83-.63-1.76-.63-1.65-.57-1.57-.44-1.46-.44L60.53,20l-1.26-.32-1.14-.19-1-.18-.88-.13h-.76l-.57.06-.5.07-.32.18-.19.26-.06.25.06.38.25.44.38.51.51.5.63.63.82.63.88.76,1.08.69,1.13.83,1.26.82,1.39.88,1.52.88,1.58,1,1.64.95,1.76.94,1.83,1,1.9,1,2,.95,2,1,2.08,1,2,1,2.09,1,2.08.94,2.08.89,2.09.94,2.08.82,2,.89,2,.76,1.95.75,1.83.7,1.83.63,1.77.63,1.64.57,1.58.44,1.45.44,1.33.38,1.26.32,1.14.18,1,.19.88.13h.76l.56-.06.51-.07.31-.19Zm-.88,1.9.06-.32L114,49l-.19-.44-.38-.51L113,47.5l-.63-.63-.76-.7-.88-.82-.95-.76-1.13-.88-1.2-1-1.33-.94-1.45-1-1.52-1.07-1.64-1-1.64-1.08-1.77-1.07L96.25,35.5l-1.89-1.13-2-1.08-2-1.13-2-1.07-2-1.14-2-1.07-2-1-2-1.08-2-.94-2-1-2-.89-1.9-.88-1.83-.82L69,21.49l-1.64-.69-1.65-.63-1.51-.57L62.74,19l-1.33-.44-1.26-.38L59.08,18l-1-.26-.89-.18-.75-.07h-.57l-.51.07L55,17.7l-.25.19-.07.32.07.38L55,19l.38.5.45.57.63.63.75.7.89.82L59,23l1.14.88,1.2.95,1.32.94,1.46.95,1.51,1.07,1.64,1,1.64,1.08L70.69,31l1.83,1.14,1.9,1.13,2,1.07,2,1.14,2,1.07,2,1.14,2,1.07,2,1,2,1.08,2,.94,2,1,2,.89,1.89.88,1.83.82,1.77.76,1.64.69,1.64.63,1.52.57,1.45.57,1.32.44,1.27.38,1.07.25,1,.26.88.18.76.07h.57l.5-.07.32-.18Zm-1.07,1.76.12-.31-.06-.38-.19-.44-.31-.51L112,49.2l-.56-.63-.7-.76L110,47l-1-.88-1-1-1.19-.95-1.27-1.07-1.32-1.07L102.76,41l-1.58-1.2-1.64-1.14-1.64-1.2-1.77-1.2L94.3,35l-1.83-1.2-1.9-1.26-1.95-1.2-2-1.26-2-1.2-2-1.14-1.9-1.14L78.9,25.47,77,24.4l-1.89-1-1.83-1-1.77-.95-1.7-.82-1.64-.82L66.59,19l-1.52-.69-1.39-.57-1.32-.57-1.2-.44-1.07-.38-1-.25-.88-.26-.76-.12h-.57l-.5.06-.38.13-.19.19-.13.31.07.38.18.44.32.51.44.63.57.63.69.76.82.82,1,.88,1,1,1.2.95,1.26,1.07,1.33,1.07L66,26.6l1.58,1.2,1.64,1.14,1.64,1.2,1.77,1.2,1.83,1.26,1.83,1.2,1.89,1.26,2,1.2,2,1.26,1.95,1.2,2,1.14L87.92,41l2,1.13,1.89,1.07,1.9,1,1.83,1,1.76,1L99,47l1.64.82,1.58.76,1.51.69,1.39.57,1.33.57,1.2.44,1.07.38,1,.25.88.26.76.12h.56l.51-.06.38-.13Zm-1.14,1.71.13-.26v-.37l-.19-.51-.25-.5-.45-.63-.5-.76-.63-.76-.76-.88-.88-.89-1-1-1.08-1.07L105,44.47l-1.32-1.2-1.39-1.2-1.45-1.2-1.58-1.33-1.58-1.26L95.94,37l-1.71-1.33L92.4,34.24l-1.76-1.32-1.9-1.33-1.83-1.32L85,28.94l-1.89-1.33L81.3,26.35l-1.9-1.2L77.57,24,75.8,22.82,74,21.74l-1.77-1.07-1.64-1-1.58-.94L67.54,18l-1.46-.76-1.39-.69-1.26-.64-1.13-.5-1.08-.44-.94-.32-.89-.25-.69-.19-.63-.06h-.51l-.31.06-.26.25-.12.25v.38l.19.51.25.5.44.63.51.76.63.76.76.88.88.89,1,1,1.07,1.07,1.2,1.07,1.33,1.2,1.39,1.2L68,26.73l1.57,1.33,1.58,1.26,1.71,1.32L74.54,32l1.83,1.39,1.77,1.32L80,36l1.83,1.32,1.9,1.33L85.65,40l1.83,1.26,1.89,1.2,1.83,1.2L93,44.78l1.77,1.08,1.77,1.07,1.64,1,1.58.94,1.51.82,1.45.76,1.39.69,1.26.64,1.14.5,1.07.44,1,.32.88.25.7.19.63.06h.5l.32-.06Zm-1.26,1.7.13-.31.06-.38-.13-.44-.25-.57-.38-.7-.5-.75-.57-.82-.7-.89-.82-1-.94-1-1.08-1.13-1.07-1.2L103,44.47l-1.33-1.33-1.39-1.32-1.45-1.33L97.33,39.1l-1.58-1.45-1.7-1.45L92.4,34.75l-1.76-1.46-1.77-1.45L87.1,30.39,85.33,29,83.5,27.55l-1.76-1.32L80,24.84,78.2,23.57l-1.7-1.26-1.71-1.2L73.15,20,71.51,18.9l-1.51-1L68.55,17l-1.39-.82-1.33-.82-1.26-.64L63.43,14l-1-.5-.94-.38-.82-.32-.7-.25-.63-.06-.51-.06-.37.12-.19.13-.13.31-.06.38.12.44.26.57.37.7.51.75.57.82.69.89.82,1,1,1,1.07,1.13,1.08,1.2,1.26,1.2,1.32,1.33,1.39,1.32,1.45,1.33,1.52,1.39L73,30l1.7,1.45,1.64,1.45,1.77,1.45,1.77,1.46,1.76,1.45,1.77,1.39,1.83,1.45L87,41.37l1.77,1.39L90.57,44l1.71,1.26,1.7,1.2,1.64,1.13,1.64,1.08,1.52,1,1.45.94,1.39.82,1.32.82,1.27.63,1.13.64,1,.5,1,.38.82.32.69.25.64.06.5.06.38-.12Zm-1.33,1.52.13-.26.06-.37-.12-.45-.19-.63-.32-.63-.44-.82-.57-.82-.63-1-.76-1.07-.88-1.07-1-1.2-1.07-1.26-1.14-1.27-1.2-1.39-1.32-1.38L98.4,41.37,97,39.86l-1.52-1.52-1.51-1.51-1.58-1.58L90.7,33.67,89,32.16l-1.71-1.58-1.64-1.51L84,27.55,82.24,26l-1.7-1.46L78.83,23.2l-1.64-1.39-1.64-1.27L74,19.28l-1.51-1.13L71,17l-1.39-1-1.39-.95L67,14.23l-1.14-.75-1.14-.7-1-.57-.88-.44L62,11.39l-.69-.25L60.72,11,60.21,11l-.38.06-.25.19-.12.26-.07.37.13.45.19.63.31.63.45.82.56.82.64.95.75,1.07.89,1.07.94,1.2,1.08,1.26L66.46,22l1.2,1.39L69,24.77l1.39,1.46,1.45,1.51,1.51,1.52,1.52,1.51,1.57,1.58,1.65,1.58,1.7,1.51L81.48,37l1.65,1.51,1.7,1.52,1.7,1.51L88.24,43l1.7,1.38,1.64,1.39,1.64,1.26,1.58,1.27,1.52,1.13,1.45,1.14,1.39,1,1.39.95,1.26.82,1.13.75,1.14.7,1,.57.88.44.83.38.69.25.57.13.5.06.38-.06Zm-1.45,1.51.19-.25.06-.38-.06-.5-.19-.57-.25-.7-.44-.82-.44-.88-.64-1-.69-1.07-.76-1.14-.94-1.26-1-1.27-1.07-1.38-1.14-1.46-1.2-1.51L97.9,42.19l-1.33-1.57L95.18,39,93.73,37.4l-1.52-1.64L90.7,34.05l-1.58-1.64-1.58-1.64L85.9,29.13l-1.58-1.64-1.64-1.58L81.11,24.4l-1.58-1.52L78,21.43,76.43,20l-1.51-1.33-1.45-1.26-1.39-1.2-1.39-1.13-1.26-1-1.2-.95-1.14-.82L66,11.65l-1-.64-.88-.5-.76-.44-.69-.32-.63-.19-.44-.06-.38.06L61,9.69l-.19.25-.06.38.06.5.19.57.26.7.44.82.44.88.63,1,.7,1.07L64.25,17l1,1.26,1,1.26,1.07,1.39,1.14,1.46,1.19,1.51,1.33,1.52L72.21,27l1.38,1.58,1.46,1.64,1.51,1.64,1.52,1.71,1.57,1.64,1.58,1.64,1.64,1.64,1.58,1.64,1.64,1.58,1.58,1.51,1.58,1.52,1.58,1.45,1.51,1.39,1.52,1.33,1.45,1.26,1.39,1.2,1.38,1.13,1.27,1,1.2.95,1.13.82,1.08.69.94.64.89.5.75.44.7.32.63.19.44.06.38-.06Zm-1.51,1.39.19-.25.06-.38v-.51l-.19-.56-.19-.7-.38-.82-.44-.95-.5-1L104.14,53l-.69-1.2-.82-1.26-.88-1.39-1-1.45-1.08-1.52-1.07-1.51L97.39,43l-1.26-1.65-1.33-1.7L93.48,38,92.09,36.2l-1.45-1.71-1.46-1.76L87.67,31l-1.45-1.7L84.7,27.55l-1.51-1.7-1.52-1.64-1.51-1.65-1.45-1.51-1.45-1.52-1.39-1.38-1.39-1.39L73.15,15.5l-1.26-1.2-1.2-1.08-1.14-1-1.13-.88-1-.82-.88-.63-.89-.57-.76-.51-.63-.31-.57-.25-.5-.07H62.8l-.25.13-.19.25-.06.38v.51l.19.56.18.7.38.82.45,1,.5,1,.63,1.13.7,1.2.82,1.26L67,18.46l1,1.45,1.07,1.52,1.08,1.51,1.2,1.64,1.26,1.65L74,27.93l1.33,1.7,1.39,1.77,1.45,1.71,1.45,1.76,1.52,1.77,1.45,1.7,1.51,1.71,1.52,1.7,1.51,1.64L88.62,45l1.45,1.52,1.45,1.51,1.39,1.39,1.39,1.39,1.32,1.26,1.27,1.2,1.19,1.08,1.14,1,1.14.88,1,.82.88.63.88.57.76.5.63.32.57.25.51.07H106Zm-1.58,1.33.19-.26.06-.38v-.5l-.06-.57-.19-.76-.32-.82L104,56.4l-.44-1.08-.57-1.13-.69-1.27-.69-1.32-.82-1.45-.89-1.45-.94-1.58-1-1.64-1.14-1.71-1.14-1.7-1.2-1.77-1.2-1.77L91.9,36.7l-1.33-1.83L89.25,33l-1.39-1.83-1.39-1.77-1.39-1.83-1.39-1.77L82.3,24l-1.38-1.64-1.39-1.65-1.39-1.57-1.33-1.52-1.26-1.45-1.26-1.33-1.2-1.26L72,12.4l-1.07-1.07-1-.95-1-.82L68,8.8l-.82-.63-.76-.5-.63-.38L65.26,7l-.44-.13h-.38L64.13,7l-.19.26-.07.38v.5l.07.57.19.76.31.82.38.94.44,1.08.57,1.13.7,1.26L67.22,16,68,17.45l.88,1.45,1,1.58,1,1.64L72,23.83l1.13,1.7,1.2,1.77,1.2,1.77,1.33,1.83,1.32,1.83,1.33,1.89,1.39,1.83,1.38,1.77,1.39,1.83,1.39,1.77,1.39,1.76,1.39,1.64,1.39,1.65,1.39,1.57L92,50l1.26,1.45,1.27,1.33L95.69,54l1.13,1.2,1.08,1.07,1,.95.94.82.89.75.82.64.75.5.63.38.57.25.44.13h.38Zm-1.71,1.13.19-.19.13-.38v-.5l-.06-.57-.13-.76-.25-.82-.32-1-.38-1.07-.5-1.2L101.05,54l-.63-1.39-.69-1.45-.82-1.58L98,48l-.88-1.7-1-1.77-1-1.77-1.07-1.83L92.91,39l-1.2-1.89-1.2-1.9-1.26-2-1.2-1.89-1.33-1.89-1.26-1.9L84.2,25.72,82.87,24l-1.26-1.76-1.26-1.77-1.26-1.64L77.82,17.2l-1.13-1.52-1.2-1.38-1.14-1.39-1.07-1.2-1-1.14-1-1-.88-.94-.82-.76-.82-.7-.7-.56-.56-.38L67,5.9l-.44-.19h-.38l-.32.13L65.64,6l-.12.38v.5l.06.57.12.76.26.82.31,1,.38,1.07.51,1.2.56,1.26L68.36,15l.69,1.45L69.87,18l.88,1.58.89,1.7,1,1.77,1,1.77,1.07,1.83,1.14,1.89,1.2,1.89,1.2,1.9,1.26,1.95,1.2,1.9,1.32,1.89L83.31,40l1.27,1.89,1.32,1.77,1.27,1.76,1.26,1.77,1.26,1.64L91,50.4l1.14,1.51,1.2,1.39,1.13,1.39,1.08,1.2,1,1.14.94,1,.89.94.82.76.82.7.69.56.57.38.57.32.44.19h.38Zm-1.76,1.14.19-.25.19-.32.06-.51-.06-.63-.07-.69-.19-.88-.25-1-.38-1.08-.38-1.2L99.79,55l-.57-1.45L98.59,52l-.69-1.58-.76-1.64-.82-1.77-.89-1.83-.88-1.83-1-1.89-1-2-1-1.95-1.14-2-1.07-2-1.14-2-1.19-2-1.14-1.95-1.2-2L83.5,23.83,82.3,22l-1.13-1.77L80,18.46,78.9,16.82l-1.14-1.58-1.07-1.51-1-1.39-1-1.26-1-1.2L72.84,8.8l-.82-1L71.2,7l-.7-.69-.69-.63-.57-.44-.51-.32-.44-.19-.38-.06-.31.06L67.41,5l-.19.32-.06.51.06.63.06.69.19.88.25,1,.38,1.08.38,1.2L69,12.59,69.55,14l.64,1.52.69,1.58.76,1.64.82,1.76.88,1.84.89,1.83,1,1.89,1,2,1,2,1.13,2,1.07,2,1.14,2,1.2,2,1.14,2,1.2,2,1.13,1.89,1.2,1.83,1.14,1.77,1.13,1.77,1.14,1.64L91,52.36l1.07,1.51,1,1.39,1,1.26.94,1.2.89,1.07.82,1,.82.83.69.69L99,62l.57.44.5.32.44.19.38.06Z"/></g><g class="b"><path class="d" d="M67.6,62.9l.31.06.38-.06.44-.19.51-.32.57-.44.69-.63.7-.7.82-.81.82-1,.88-1.08,1-1.2,1-1.26,1-1.39,1.07-1.51,1.14-1.58L80,49.14l1.14-1.77L82.3,45.6l1.2-1.83,1.14-1.89,1.2-2L87,38l1.19-2,1.14-2,1.07-2,1.14-2,1-2,1-2,1-1.89.88-1.83.89-1.83.82-1.77.76-1.64.69-1.58L99.22,14l.57-1.45.5-1.32.38-1.2L101.05,9l.25-1,.19-.88.07-.69.06-.63-.06-.51L101.37,5l-.19-.26-.32-.06-.38.06-.44.19-.5.32L99,5.65l-.7.63L97.58,7l-.82.83-.82,1-.89,1.07-.94,1.2-1,1.26-1,1.39L91,15.24l-1.14,1.58-1.14,1.64-1.13,1.77L86.47,22l-1.2,1.83-1.13,1.89-1.2,2L81.8,29.63l-1.2,2-1.14,2-1.07,2-1.13,2-1,1.95-1,2-1,1.89-.89,1.83-.88,1.84-.82,1.76-.76,1.64L70.19,52l-.64,1.52L69,55l-.51,1.32-.38,1.2-.37,1.08-.26,1-.19.88-.06.69-.06.64.06.5.19.32Zm-1.77-1.14.32.13h.37L67,61.7l.57-.32L68.1,61l.7-.56.82-.7.82-.76.88-.94,1-1,1-1.14,1.07-1.2,1.14-1.39,1.2-1.38,1.13-1.52,1.27-1.58,1.26-1.64,1.26-1.77,1.26-1.76,1.33-1.77L85.46,40l1.26-1.9,1.33-1.89,1.2-1.89,1.26-2,1.2-1.89,1.2-1.9L94,26.67l1.08-1.83,1-1.77,1-1.77L98,19.6,98.9,18l.83-1.58.69-1.45.63-1.39.57-1.26.5-1.2.38-1.07.32-1,.25-.82.13-.76.06-.57v-.5L103.13,6,103,5.84l-.32-.13h-.38l-.44.19-.57.32-.57.38-.69.56-.82.7-.82.76-.89.94-.94,1-1,1.14-1.08,1.2L93.29,14.3l-1.2,1.38L91,17.2l-1.26,1.58-1.26,1.64-1.26,1.77L85.9,24l-1.32,1.77-1.26,1.89-1.27,1.9L80.73,31.4l-1.2,1.9-1.26,2-1.2,1.9L75.87,39l-1.14,1.89-1.07,1.83-1,1.77-1,1.77L70.75,48l-.88,1.58-.82,1.58-.69,1.45L67.73,54l-.57,1.26-.51,1.2-.38,1.07-.31,1-.26.82-.12.76-.06.57v.5l.12.38Zm-1.7-1.14.31.07h.38l.44-.13.57-.25.63-.38.76-.5L68,58.8l.88-.76,1-.82,1-.95L72,55.2,73.09,54l1.2-1.26,1.26-1.33L76.81,50l1.33-1.52,1.39-1.57,1.39-1.65,1.38-1.64,1.39-1.76,1.39-1.77,1.39-1.83,1.39-1.77,1.39-1.83,1.32-1.89L91.9,30.9l1.33-1.83,1.19-1.77,1.2-1.77,1.14-1.7,1.14-1.71,1-1.64.95-1.58.89-1.45.82-1.45.69-1.32.7-1.27.56-1.13L104,11.2l.38-.94.32-.82.19-.76.06-.57v-.5l-.06-.38L104.65,7l-.32-.06H104l-.44.13-.56.25-.64.38-.75.5-.82.64-.89.75-.95.82-1,.95L96.82,12.4l-1.13,1.2-1.2,1.26-1.26,1.33L92,17.64l-1.32,1.52-1.39,1.58-1.39,1.64L86.47,24l-1.39,1.76-1.39,1.77L82.3,29.38l-1.38,1.77L79.53,33,78.2,34.87,76.88,36.7l-1.33,1.83-1.2,1.77-1.2,1.77L72,43.77l-1.14,1.71-1,1.64-1,1.58L68,50.15l-.82,1.45-.7,1.33-.69,1.26-.57,1.13-.44,1.08-.38.94-.31.82-.19.76-.07.57V60l.07.38ZM62.55,59.3l.25.13h.38l.5-.07.57-.25.63-.31.76-.51.88-.57.89-.63,1-.82,1.13-.88,1.14-1,1.2-1.08,1.26-1.2,1.33-1.26,1.39-1.39,1.39-1.39,1.45-1.51L80.16,45l1.51-1.64,1.52-1.64,1.51-1.7,1.52-1.71,1.45-1.7,1.51-1.77,1.46-1.76,1.45-1.71,1.39-1.77,1.32-1.7,1.33-1.7,1.26-1.64,1.2-1.65,1.07-1.51,1.08-1.52,1-1.45.88-1.39.82-1.26.69-1.2.64-1.13.5-1,.44-1,.38-.82.19-.7.19-.56V8.93l-.06-.38-.19-.25L106,8.17h-.38l-.51.07-.57.25-.63.32-.76.5-.88.57-.88.63-1,.82-1.14.88-1.14,1L96.89,14.3l-1.27,1.2L94.3,16.76l-1.39,1.39-1.39,1.38-1.45,1.52-1.45,1.51L87.1,24.21l-1.51,1.64-1.52,1.7-1.51,1.7L81.11,31l-1.52,1.77-1.45,1.76L76.69,36.2,75.3,38,74,39.67l-1.32,1.7L71.39,43l-1.2,1.64-1.08,1.51L68,47.69l-1,1.45-.88,1.39-.82,1.26-.7,1.2L64,54.12l-.5,1-.45.95-.38.82-.18.7-.19.56v.51l.06.38ZM61,57.91l.26.13.38.06.44-.06.63-.19.69-.32.76-.44.88-.5L66,56l1.07-.7,1.14-.82,1.2-.95,1.26-1,1.39-1.13,1.39-1.2,1.45-1.26,1.51-1.33L78,46.17l1.58-1.45,1.58-1.51,1.57-1.52,1.64-1.58,1.58-1.64,1.64-1.64,1.58-1.64,1.58-1.64,1.51-1.71,1.52-1.64,1.45-1.64L96.57,27,97.9,25.4l1.32-1.51,1.2-1.51,1.14-1.46,1.07-1.39,1-1.26.94-1.26.76-1.14.7-1.07.63-1,.44-.88.44-.82.25-.7.19-.56.06-.51-.06-.38-.19-.25-.25-.13-.38-.06-.44.06-.63.19-.7.32-.75.44-.89.5-.94.64-1.08.69-1.13.82-1.2.95-1.27,1L96.7,16.25l-1.39,1.2-1.45,1.26L92.34,20l-1.51,1.39-1.58,1.45L87.67,24.4l-1.58,1.51-1.64,1.58-1.58,1.64-1.64,1.64-1.58,1.64-1.57,1.64-1.52,1.71L75.05,37.4,73.6,39l-1.39,1.58L70.88,42.2l-1.33,1.51-1.19,1.51-1.14,1.46-1.07,1.38-1,1.27-1,1.26-.75,1.14-.7,1.07-.63,1-.44.88-.44.82-.26.7-.18.57-.07.5.07.38ZM59.58,56.4l.25.19.38.06.51-.06.57-.13.69-.25.82-.38.88-.44,1-.57,1.13-.7L67,53.37l1.26-.82,1.39-.95,1.39-1,1.45-1.14L74,48.32l1.58-1.26,1.64-1.27,1.64-1.39L80.54,43l1.7-1.46L84,40.05l1.7-1.52L87.29,37,89,35.44l1.7-1.51,1.64-1.58,1.58-1.58,1.51-1.52L97,27.74l1.45-1.51,1.39-1.46,1.32-1.38,1.2-1.39,1.14-1.26,1.07-1.27,1-1.2.88-1.07.76-1.07.63-.95.57-.82.44-.82.32-.63.19-.63.12-.44-.06-.38-.13-.26-.25-.19-.38-.06-.5.06-.57.13-.7.25-.81.38-.89.44-1,.57-1.13.7-1.14.75-1.26.82L99.16,16l-1.39,1-1.45,1.14L94.8,19.28l-1.57,1.27-1.65,1.26L89.94,23.2l-1.7,1.39L86.53,26l-1.7,1.51-1.7,1.52-1.65,1.51-1.7,1.58-1.7,1.51-1.65,1.58-1.57,1.58-1.52,1.51-1.51,1.52-1.45,1.51L69,42.83l-1.33,1.38-1.2,1.39-1.13,1.27-1.08,1.26-.94,1.2-.89,1.07-.75,1.07-.64,1-.56.82-.45.82-.31.63-.19.63-.13.45.07.37Zm-1.32-1.52.19.13.37.12.51-.06L60,55l.69-.26.83-.31.94-.38,1-.5,1.14-.63,1.26-.64,1.33-.82,1.38-.82L70,49.71l1.51-1,1.64-1.08,1.64-1.13,1.71-1.2L78.2,44,80,42.76l1.77-1.39,1.76-1.32,1.83-1.45,1.77-1.39,1.77-1.45,1.77-1.45,1.76-1.46L94,31.4,95.75,30l1.58-1.45,1.51-1.39,1.45-1.33,1.39-1.32L103,23.13l1.26-1.2,1.07-1.19,1.08-1.14.94-1,.82-1,.7-.88.57-.83.5-.75.38-.7.25-.57.13-.44-.06-.38-.13-.31-.19-.13-.38-.12-.5.06-.63.06-.7.25-.82.32-1,.38-1,.5-1.13.64-1.26.63-1.33.82-1.39.82-1.45.94-1.52,1L95.62,20,94,21.11l-1.7,1.2-1.71,1.27-1.76,1.26L87,26.23l-1.77,1.32L83.44,29l-1.77,1.39-1.76,1.45L78.14,33.3l-1.77,1.45L74.73,36.2,73,37.65,71.45,39.1l-1.52,1.39-1.45,1.33-1.39,1.32-1.32,1.33-1.26,1.2-1.08,1.2L62.36,48l-1,1-.82,1-.69.88-.57.83-.51.75-.37.7-.26.57-.06.44v.38ZM57,53.18l.26.25.31.06h.51l.63-.06.69-.19.89-.25.94-.32,1.08-.44,1.13-.5,1.27-.64,1.38-.69,1.46-.76,1.51-.82,1.58-.94,1.64-1L74,45.86l1.76-1.08,1.77-1.13,1.83-1.2,1.89-1.2L83.13,40,85,38.66l1.89-1.32L88.74,36l1.9-1.33,1.76-1.32L94.23,32l1.71-1.33,1.7-1.32,1.58-1.26,1.58-1.33,1.45-1.2,1.39-1.2,1.32-1.2,1.2-1.07L107.24,21l1-1,.88-.89.76-.88.63-.76.5-.75.45-.64.25-.5.19-.51v-.37l-.13-.26-.25-.25-.32-.06h-.5l-.63.06-.7.19-.88.25-1,.32-1.07.44-1.14.5-1.26.64-1.39.69-1.45.76-1.51.82-1.58.94-1.64,1-1.77,1.07L93,22.82,91.2,24l-1.82,1.2-1.9,1.2-1.83,1.26-1.89,1.33-1.9,1.33L80,31.59l-1.89,1.33-1.77,1.32-1.83,1.39L72.84,37l-1.71,1.32-1.58,1.26L68,40.87l-1.46,1.2-1.38,1.2-1.33,1.2-1.2,1.07-1.07,1.07-1,1-.88.89-.76.88-.63.76-.51.75-.44.64-.25.5-.19.51v.38Zm-1.13-1.71.19.19.38.13.5.06h.57l.76-.12.88-.26,1-.25,1.07-.38,1.2-.44,1.32-.57,1.39-.57,1.52-.69,1.58-.76L69.81,47l1.7-.82,1.77-1,1.83-1,1.89-1,1.9-1.08L80.85,41l1.9-1.14,2-1.14,2-1.2,2-1.26,1.95-1.2,1.9-1.26,1.83-1.2,1.83-1.26,1.77-1.2,1.64-1.2,1.64-1.14,1.58-1.2,1.45-1.07,1.32-1.07,1.26-1.07,1.2-.95,1-1,1-.88.82-.82.7-.76.56-.63.45-.63.31-.51.19-.44.06-.38-.12-.31-.19-.19-.38-.13-.5-.06h-.57l-.76.12-.88.26-1,.25-1.07.38-1.2.44-1.33.57-1.39.57-1.51.69-1.58.76L99,20.61l-1.71.82-1.76.95-1.83,1-1.9,1-1.89,1.07-2,1.13L86,27.74l-2,1.14-1.95,1.2-2,1.26-2,1.2L76.31,33.8,74.48,35l-1.83,1.26-1.77,1.2-1.64,1.2L67.6,39.8,66,41l-1.45,1.07-1.33,1.07L62,44.21l-1.2.95-1,1-1,.88-.82.82-.69.76-.57.63-.44.63-.32.51-.19.44-.06.38Zm-1.07-1.76.25.19.31.19.51.06h.57l.75-.06.89-.19,1-.26,1.07-.25L61.41,49l1.33-.44L64.19,48l1.51-.57,1.65-.63L69,46.11l1.76-.76,1.83-.82,1.9-.88,2-.89,2-1,2-.94,2-1.08,2-1,2-1.07,2-1.14,2-1.07,2-1.13,2-1.08,1.89-1.13L98.08,31l1.77-1.07,1.64-1.08,1.64-1,1.52-1.07,1.45-.95,1.33-.94,1.2-.95,1.13-.88.95-.76.88-.82.76-.69.63-.64.44-.57.38-.5.19-.44.06-.38-.06-.32-.25-.18-.32-.19-.5-.07h-.57l-.76.07-.88.19-1,.25-1.07.25-1.27.38L106,19l-1.45.57-1.52.57-1.64.63-1.64.69L98,22.25l-1.83.82L94.3,24l-2,.89-2,1-2,.94-2,1.08-2,1L82.3,30l-2,1.14-2,1.07-2,1.14-2,1.07-1.9,1.13-1.83,1.14-1.77,1.07-1.64,1.08-1.64,1-1.51,1.07-1.46,1-1.32.94-1.2,1L59,44.59l-.94.76-.89.82-.75.7-.64.63-.44.56-.37.51-.19.44-.07.38Zm-.89-1.9.19.25.32.19.5.07.57.06h.76l.88-.13,1-.19,1.14-.18,1.26-.32,1.32-.38,1.46-.44,1.57-.44,1.64-.57,1.77-.63,1.83-.63,1.83-.7,2-.75,2-.76,2-.89L80,40.55l2.08-.94,2.09-.89,2.08-.94,2.08-1,2-1,2.08-1,2-1,2-.95,1.89-1,1.83-1,1.77-.94,1.64-.95L105,28l1.51-.88,1.39-.88,1.26-.83,1.14-.81,1.07-.7.89-.76.82-.63.63-.63.5-.5.38-.51.26-.44.06-.38-.06-.25-.2-.26-.31-.18-.51-.07-.56-.06h-.76l-.89.13-1,.18-1.14.19-1.26.32-1.33.38-1.45.44-1.58.44-1.64.57-1.77.63-1.83.63-1.83.7-1.95.76-2,.75-2,.89-2.08.82L86.72,28l-2.08.89-2.08.94-2.08,1-2,1-2.08,1-2,1-2,1-1.89,1-1.84,1L67,37.71l-1.64.95-1.58,1-1.52.88-1.38.88-1.27.83L58.45,43l-1.08.69-.88.76-.82.63-.63.63-.51.51-.38.5-.25.44-.06.38Zm-.82-1.89.19.25.32.19.44.13.63.06.76.06.88-.06,1-.13,1.14-.12,1.26-.25,1.39-.26,1.45-.38L64.19,45l1.64-.44,1.77-.5,1.89-.51,1.9-.56,2-.64,2-.69L77.45,41l2.08-.76,2.14-.76,2.15-.82L86,37.84,88.11,37l2.09-.82,2.08-.89,2.08-.88,2-.88,1.89-.89,1.9-.82L102,31l1.7-.82,1.64-.82,1.58-.82,1.45-.82,1.33-.7,1.2-.75,1.07-.7,1-.63.82-.63.69-.57.51-.5.44-.45.25-.44.13-.31-.06-.32-.19-.25-.32-.19-.44-.13-.63-.06-.76-.06-.88.06-1,.13-1.14.12-1.26.26-1.39.25-1.45.38-1.64.37L103,23l-1.77.5-1.9.51-1.89.57-2,.63-2,.69-2.08.69-2.08.76-2.15.76L85,28.94l-2.15.82-2.15.82-2.08.82-2.08.88-2.08.89-2,.88-1.9.89-1.89.82-1.83.88-1.71.82-1.64.82-1.58.82-1.45.82-1.32.7-1.2.75-1.08.7-.94.63-.82.63-.7.57-.5.5-.44.45-.26.44L53,45.6Zm-.69-2,.19.25.31.26.44.12.57.13.76.06h.88l1-.06,1.2-.06L59,44.53l1.39-.19,1.52-.25,1.58-.32,1.7-.31L67,43.08l1.83-.44,2-.44,2-.51,2.08-.57L77,40.55l2.15-.63,2.21-.63,2.14-.63L85.71,38l2.15-.7,2.21-.76,2.14-.69,2.09-.76,2-.75,2-.76,2-.76,1.83-.76,1.77-.69,1.71-.76,1.57-.69,1.52-.7L110,28.5l1.27-.63,1.13-.63,1-.57.82-.57.76-.51.57-.5.44-.44.25-.38.13-.32v-.31l-.19-.25-.32-.26-.44-.12-.56-.13-.76-.06h-.89l-1,.06-1.2.06-1.26.13-1.39.19-1.51.25-1.58.32-1.7.31-1.83.38L99.92,25l-2,.44-2,.51-2.08.57-2.09.57-2.14.63-2.21.63-2.15.63-2.21.69-2.14.7-2.21.76-2.15.69-2.08.76-2,.76-2,.75-2,.76-1.83.76-1.77.69-1.7.76-1.58.69-1.51.7-1.33.69-1.26.63-1.14.63-1,.57-.82.57-.76.51-.56.5-.44.44-.26.38-.12.32Zm-.57-2,.13.25.31.25.44.19.63.13L54,43l.88.07h2.21L58.38,43l1.39-.12,1.52-.13,1.64-.25,1.7-.19,1.83-.32,1.9-.25,2-.38,2-.38,2.08-.38,2.14-.5,2.21-.44L81,39.1l2.27-.5L85.46,38l2.21-.57,2.21-.57L92,36.26l2.15-.63,2.15-.57,2-.63,2-.63,1.9-.63,1.83-.63,1.77-.63,1.57-.63,1.58-.57,1.39-.57,1.26-.57,1.2-.57,1-.5.88-.51.76-.5.57-.44.51-.38.25-.38.19-.38v-.32l-.13-.25-.31-.25-.45-.19-.63-.13-.69-.12-.89-.06h-2.21l-1.26.06-1.39.12-1.51.13-1.64.25-1.71.19-1.83.32-1.89.25-2,.38-2,.38-2.08.38-2.15.5L89.94,28l-2.14.51-2.28.5-2.2.57-2.21.57-2.21.57-2.15.63L74.6,32l-2.14.57-2,.63-2,.63-1.89.63-1.83.63L63,35.69l-1.58.64-1.58.56-1.38.57L57.18,38,56,38.6l-1,.5-.89.51-.76.5-.56.44-.51.38-.25.38-.19.38Zm-.44-2,.12.25.32.25.44.25.57.13.69.19.89.12,1.07.07,1.14.06h2.65l1.51-.06,1.64-.13L64.19,41,66,40.87l1.89-.19,2-.25,2-.25,2.15-.26,2.15-.31,2.2-.38,2.21-.32,2.28-.44,2.27-.38,2.21-.44,2.27-.44,2.21-.44L94,36.26l2.15-.5,2.08-.51,2-.5,2-.51,1.83-.5,1.77-.51,1.64-.5,1.58-.51,1.45-.5,1.33-.51,1.13-.44,1.07-.5,1-.45.76-.37.63-.45.5-.38.32-.37.19-.32v-.32l-.13-.25-.31-.25-.44-.25-.57-.13-.7-.19-.88-.12-1.07-.07-1.14-.06h-2.65l-1.52.06-1.64.13-1.76.12-1.83.13-1.9.19-2,.25-2,.26-2.14.25L92.53,28l-2.21.38-2.21.32-2.27.44-2.27.38L81.36,30l-2.27.44-2.21.44-2.15.51-2.15.5-2.08.51-2,.5-2,.51-1.82.5-1.77.51-1.64.5-1.58.51-1.45.5-1.33.51-1.14.44-1.07.51-.95.44-.75.37-.63.45-.51.38-.31.37-.19.32Zm-.32-2.09.13.32.25.25.44.25.57.19.69.26.89.12,1,.19,1.13.06,1.33.13,1.39.06,1.51.07H62l1.71-.07h1.83l2-.12,2-.07,2-.12,2.15-.19,2.21-.13,2.21-.25,2.27-.19,2.21-.25,2.27-.32,2.28-.25,2.27-.32,2.27-.31,2.21-.38,2.15-.32,2.08-.37,2-.38,2-.38,1.83-.44,1.83-.38,1.7-.44,1.58-.38,1.45-.38,1.33-.44,1.26-.38,1.07-.44,1-.38.76-.38.69-.32.51-.38.31-.31.19-.38.06-.25-.12-.32-.25-.25-.45-.25-.56-.19-.7-.26-.88-.12-1-.19-1.14-.06-1.32-.13-1.39-.06-1.52-.07h-1.64l-1.7.07H103.2l-2,.12-2,.07-2,.12-2.15.19-2.2.13-2.21.25-2.28.19-2.21.25-2.27.32-2.27.25-2.27.32-2.27.31-2.21.38-2.15.32-2.08.37-2,.38-2,.38-1.83.44L62.93,33l-1.71.44-1.57.38-1.46.38-1.32.44-1.26.38-1.08.44-.94.38-.76.38-.7.32-.5.38-.32.31-.19.38Zm-.19-2,.13.26.25.31.38.25.57.26.69.25.88.19.95.25,1.2.19,1.26.13,1.39.18,1.52.13,1.64.13,1.7.06,1.83.06,2,.07H73.4l2.21-.07,2.21-.06,2.28-.06,2.27-.13,2.27-.13L86.91,38l2.34-.13,2.21-.19,2.21-.25,2.21-.19L98,37,100,36.7l2-.25,1.89-.31,1.77-.26,1.77-.31,1.58-.32,1.51-.31,1.33-.32,1.26-.31,1.07-.32,1-.38.82-.31.63-.32.57-.32.38-.31.19-.32.06-.31-.12-.26-.25-.31-.38-.25-.57-.26-.7-.25L115,30.2l-1-.25-1.19-.19-1.27-.13-1.39-.18-1.51-.13-1.64-.13-1.71-.06-1.83-.06-2-.07H95.37l-2.21.07L91,29.13l-2.27.06-2.27.13-2.27.13-2.28.18-2.33.13L77.32,30l-2.21.25-2.21.19-2.08.25-2.09.26-2,.25-1.89.31-1.77.26L61.29,32l-1.58.32-1.52.31L56.87,33l-1.26.32-1.08.31-1,.38-.82.32-.63.31-.57.32-.38.31-.19.32Z"/></g><g class="b"><path class="e" d="M99.35,63.84l.25-.18.13-.32.12-.51V62.2l-.06-.75-.13-.82-.19-1-.25-1.14-.38-1.26-.38-1.33L98,54.44l-.51-1.52-.56-1.64-.7-1.7-.69-1.83-.76-1.83L93.92,44l-.82-2-.95-2-.88-2-1-2.08-1-2-1-2.09-1.07-2-1-2-1.07-2-1.08-2-1-1.9L82,20l-1-1.77-1-1.76-1-1.65-1-1.51-1-1.52-.88-1.32-.88-1.26-.83-1.14-.82-1-.69-.88-.69-.76-.64-.63L71,4.32l-.51-.38-.44-.18-.32-.07-.31.07-.25.18-.13.32-.13.51V5.4l.07.75.12.82.19,1,.25,1.14.38,1.26.38,1.33.51,1.45.5,1.51.57,1.65.69,1.7.7,1.83L74,21.68l.82,1.89.82,2,.94,2,.89,2,1,2.08.94,2,1,2.09,1.08,2,1,2,1.07,2,1.07,2,1,1.9,1.08,1.89,1,1.77,1,1.76,1,1.65,1,1.51.94,1.52.89,1.32.88,1.26.82,1.14.82,1,.7.88.69.76.63.63.57.51.5.38.45.18.31.07Zm-1.9.89.26-.19.19-.32.12-.5.06-.63v-.7L98,61.51l-.19-1-.19-1.14-.25-1.26-.32-1.39-.37-1.45-.45-1.58-.5-1.7-.57-1.71-.57-1.83L94,46.55l-.69-2-.76-2-.76-2.08L91,38.41l-.82-2.09-.82-2.08-.88-2.14-1-2.09-.88-2.08-.95-2.08-1-2-.94-2-.89-2-.94-1.83L81,16.25l-.94-1.7L79.21,13l-.82-1.51-.82-1.39-.82-1.33L76,7.54,75.3,6.47l-.7-.88L74,4.77l-.56-.7-.57-.5-.44-.38L72,2.93l-.38-.12-.25.06-.25.19-.19.32-.13.5-.06.63v.7l.06.88.19,1,.19,1.14.26,1.26.31,1.39.38,1.45.44,1.58.51,1.7.56,1.71.57,1.83.63,1.89.7,2,.76,2L77,27.11l.82,2.08.82,2.09.82,2.08.89,2.14.94,2.09.89,2.08.95,2.08.94,2,1,2,.88,2,.95,1.83.88,1.83,1,1.7.88,1.58.82,1.51.82,1.39L92,58.86l.76,1.2.7,1.07.69.88.63.82.57.7.57.5.44.38.44.26.38.12Zm-1.89.76.25-.19L96,65l.13-.44.12-.63V62.27l-.06-1-.13-1.14-.18-1.26-.26-1.39L95.37,56,95,54.38l-.38-1.71-.44-1.76-.5-1.9-.51-2-.57-1.95L92,43l-.69-2.09-.63-2.08L90,36.7l-.76-2.21-.76-2.14-.76-2.15-.82-2.14-.75-2.15-.83-2-.82-2.08-.82-2L82.87,18l-.75-1.83-.83-1.77-.75-1.64-.76-1.58L79,9.69,78.33,8.3l-.7-1.2L77,6,76.37,5,75.8,4.2l-.56-.7-.51-.57-.44-.44-.38-.25-.38-.13h-.31L73,2.3l-.19.32-.12.44-.13.63V5.33l.06,1,.13,1.14.19,1.26.25,1.39.26,1.52.37,1.57.38,1.71.44,1.76.51,1.9.5,1.95.57,2,.57,2.08.69,2.09.64,2.08.69,2.15.76,2.21.75,2.14L81,37.4l.82,2.14.76,2.15.82,2,.82,2.08.82,2,.82,1.89.76,1.83.82,1.77.76,1.64L89,56.46l.75,1.45.7,1.39.69,1.2.63,1.14.63.94.57.82.57.7.5.57.45.44.38.25.37.13Zm-2,.63.26-.19.18-.32.19-.44.13-.57.06-.76.07-.88V62l-.07-1.2-.12-1.26-.13-1.39L94,56.59l-.25-1.65-.32-1.7-.31-1.77-.38-1.89-.38-2-.44-2-.51-2.08-.5-2.15-.51-2.14L89.82,37l-.64-2.21-.63-2.21-.63-2.21-.63-2.14L86.6,26,86,24l-.7-2.08-.69-2-.7-2L83.19,16l-.7-1.83-.63-1.7-.69-1.58-.63-1.52L79.91,8l-.64-1.26-.56-1.13-.57-1-.51-.89L77.13,3l-.44-.63-.44-.45-.38-.25-.38-.19h-.32l-.25.19L74.73,2l-.19.44L74.41,3l-.06.76-.06.88v1l.06,1.2.13,1.26L74.6,9.5,74.79,11l.26,1.64.31,1.71.32,1.77L76.06,18l.37,2,.45,2,.5,2.08.51,2.15.5,2.14L79,30.58l.63,2.21L80.22,35l.63,2.21.63,2.14.7,2.21.63,2.09.69,2.08.7,2,.69,2,.7,1.89.69,1.83.63,1.7.7,1.58.63,1.52.63,1.39.63,1.26L90.07,62l.57,1,.5.89.51.69.44.63.44.44.38.26.38.19Zm-2,.5.26-.19.25-.25.19-.44.19-.63.12-.7.07-.88.06-1V60.06l-.06-1.39-.13-1.52-.13-1.64-.19-1.7L92,52l-.25-2-.31-2-.32-2-.31-2.14-.38-2.15L90,39.54l-.45-2.21-.44-2.2-.5-2.28-.51-2.21-.5-2.21-.51-2.2-.57-2.15L86,21.93l-.57-2.08-.57-2-.57-2-.57-1.83-.56-1.71-.51-1.64-.57-1.58-.57-1.39L81,6.47l-.51-1.2-.5-1-.51-.95L79,2.56,78.64,2l-.44-.51-.38-.31L77.51,1,77.19,1l-.25.19-.25.25-.19.44-.19.63-.13.7-.06.88-.06,1V7.54l.06,1.39.13,1.52.12,1.64.19,1.7.19,1.83.25,2,.32,2,.31,2L78,23.7l.38,2.15.44,2.21.44,2.21.44,2.2.51,2.28.5,2.21.51,2.21.5,2.2.57,2.15.57,2.15.57,2.08.57,2,.56,1.95.57,1.83.57,1.71.51,1.64.56,1.58.57,1.38.51,1.33.5,1.2.51,1,.5,1,.44.75.38.57.44.51.38.31.32.13Zm-2,.38.26-.13.25-.31.25-.38.19-.63.19-.7.13-.88L91,63,91,61.82l.06-1.32V56L91,54.25l-.06-1.83-.13-2-.19-2-.19-2-.19-2.14-.25-2.15-.31-2.21-.26-2.27-.31-2.27-.38-2.27L88.3,30.9l-.38-2.28-.38-2.21-.38-2.2-.44-2.15L86.28,20l-.44-2-.44-2L85,14.11l-.51-1.77L84,10.64l-.44-1.52-.44-1.45-.45-1.39-.44-1.2L81.8,4l-.44-.89L81,2.3l-.38-.63-.38-.5L79.84.85,79.53.66,79.21.6,79,.73,78.71,1l-.26.38-.18.63-.19.7L78,3.63l-.13,1-.06,1.14L77.7,7.1v4.55l.12,1.7.07,1.83.12,2,.19,2,.19,2,.19,2.14.25,2.15.32,2.21L79.4,30l.32,2.27.38,2.27.37,2.21L80.85,39l.38,2.2.38,2.21.44,2.15.44,2.08.45,2,.44,2,.44,1.89.5,1.77.45,1.7.44,1.52.44,1.45.44,1.39.44,1.2L87,63.59l.44.89.38.82.37.63.38.5.38.32.32.19Zm-2.08.25.32-.12.25-.26.25-.44.25-.57.19-.69.19-.88.19-1,.19-1.14.13-1.26.06-1.39L89.63,58l.06-1.64V48.82l-.06-2.08-.13-2.15-.13-2.14-.12-2.21L89.12,38l-.19-2.28-.19-2.27-.25-2.33-.25-2.21L88,26.6l-.26-2.2-.31-2.15L87.1,20.1l-.31-2-.32-2-.31-1.89-.38-1.77-.32-1.7-.38-1.58L84.7,7.61l-.31-1.33L84,5l-.38-1.08L83.25,3l-.31-.82-.38-.7L82.24,1,81.93.6,81.61.41,81.29.35,81,.47l-.25.26-.26.44-.25.57L80,2.43l-.19.88-.19,1-.19,1.14-.12,1.26-.07,1.39-.12,1.52-.06,1.64v7.51l.06,2.08L79.27,23l.13,2.14.13,2.21.12,2.27.19,2.28L80,34.18l.25,2.33.26,2.21L80.79,41,81,43.2l.32,2.15.31,2.15.32,2,.31,2,.32,1.89L83,55.2l.31,1.7.38,1.58L84.07,60l.32,1.33.38,1.26.38,1.08.37.94.32.82.38.7.31.5.32.38.31.19Zm-2.08.13.31-.13.32-.19.25-.44.25-.57.32-.69.25-.82.19-1,.25-1.14.19-1.26.19-1.39.19-1.51.19-1.64.13-1.71.12-1.83.07-2,.12-2,.07-2.09V44.91l.06-2.21V38.22L88.81,36l-.07-2.28-.06-2.27-.13-2.33-.12-2.21-.13-2.28-.19-2.14L88,20.29l-.19-2.08-.26-2-.19-1.89-.25-1.83-.25-1.71L86.6,9.18l-.26-1.51L86,6.28l-.25-1.2-.32-1.14-.31-1-.26-.82-.31-.69L84.26.91,84,.54,83.63.28,83.38.22l-.32.13-.31.19L82.49,1l-.25.57-.31.69-.26.82-.19,1-.25,1.14L81,6.47l-.19,1.39-.19,1.51L80.47,11l-.12,1.71-.13,1.83-.06,2L80,18.46,80,20.54v2.15l-.06,2.21v4.48L80,31.65,80,33.93l.07,2.27.12,2.33.13,2.21L80.47,43l.19,2.14.13,2.15L81,49.39l.25,2,.19,1.89.25,1.83.26,1.71.25,1.64.25,1.51.32,1.39.25,1.2.31,1.14.32,1,.25.82.32.69.31.5.32.38.32.26Zm-2,0,.25-.06.32-.26.31-.38.32-.5.31-.69.26-.82.31-1,.32-1.14.25-1.2.31-1.39.26-1.51.25-1.64.25-1.71.25-1.83.19-1.89.26-2L88,47.31l.12-2.15L88.3,43l.13-2.28.12-2.21.13-2.33.06-2.27.07-2.28.06-2.27V24.9l-.06-2.21V20.54l-.07-2.08-.12-1.95-.07-2-.12-1.83L88.3,11l-.19-1.64-.19-1.51-.19-1.39-.19-1.26-.25-1.14-.19-1-.25-.82-.32-.69L86.28,1,86,.54,85.71.35,85.4.22l-.25.06-.32.26-.32.37-.31.51-.32.69-.25.82-.32,1L83,5.08l-.25,1.2-.32,1.39-.25,1.51-.25,1.64-.26,1.71-.25,1.83-.19,1.89-.25,2-.19,2.08-.13,2.15-.19,2.14-.12,2.28-.13,2.21L80.1,31.4,80,33.67,80,36l-.06,2.27V42.7L80,44.91v2.14L80,49.14l.13,2,.06,2,.13,1.83.12,1.71.19,1.64.19,1.51L81,61.13l.19,1.26.25,1.14.19,1,.26.82.31.69.25.57.26.44.31.19Zm-2.09-.13.32-.06.32-.19.31-.38.32-.5.38-.7.31-.82.38-.94L84,62.58l.38-1.26L84.7,60l.38-1.51.38-1.58.32-1.7.38-1.77.31-1.89.32-2,.31-2,.32-2.15.31-2.15L88,41l.25-2.28.25-2.21.25-2.33.19-2.27.19-2.28.13-2.27.12-2.21L89.5,23l.13-2.15.06-2.08V11.27l-.06-1.64L89.5,8.11l-.06-1.39-.13-1.26-.19-1.14-.19-1-.19-.88-.19-.69-.25-.57L88.05.73,87.8.47,87.48.35l-.32.06L86.85.6,86.53,1l-.31.5-.38.7L85.52,3l-.37.94L84.77,5l-.38,1.26-.32,1.33-.38,1.51-.38,1.58L83,12.4l-.38,1.77-.32,1.89-.31,2-.32,2-.31,2.15L81,24.4l-.25,2.2-.25,2.28-.26,2.21L80,33.42l-.19,2.27L79.65,38l-.12,2.27-.13,2.21-.13,2.14-.12,2.15-.06,2.08v7.51L79.15,58l.12,1.52.07,1.39.12,1.26.19,1.14.19,1,.19.88.19.69.25.57.26.44.25.26ZM79.21,67l.32-.06.31-.19.38-.32.38-.5L81,65.3l.38-.82.44-.89.44-1.07.44-1.2.45-1.39.44-1.45L84,57l.44-1.7L85,53.49l.44-1.89.44-2,.44-2,.44-2.08.44-2.15.38-2.21.38-2.2.38-2.28.38-2.21.38-2.27L89.37,30l.26-2.27.31-2.21.25-2.15.19-2.14.19-2,.19-2,.13-2L91,13.35l.13-1.7V7.1L91,5.78,91,4.64l-.12-1-.13-.88-.19-.7-.19-.63L90.07,1,89.82.73,89.56.6l-.31.06-.32.19-.38.32-.38.5-.37.63-.38.82L87,4l-.45,1.07-.44,1.2-.44,1.39-.44,1.45-.44,1.52-.45,1.7-.5,1.77L83.38,16l-.44,2-.45,2-.44,2.08-.44,2.15-.38,2.2-.38,2.21-.38,2.28-.37,2.21-.38,2.27-.32,2.27-.25,2.27-.32,2.21-.25,2.15-.19,2.14-.19,2-.19,2-.12,2-.07,1.83L77.7,56V60.5l.06,1.32L77.82,63,78,64l.13.88.19.7.18.63.26.38.25.31Zm-2-.38.32-.06.31-.13.38-.31.44-.51L79,65l.44-.75.51-1,.5-1,.51-1.2.5-1.33.57-1.38.57-1.58.51-1.64.56-1.71.57-1.83.57-1.95.57-2L86,45.67l.56-2.15.57-2.15.51-2.2.5-2.21.51-2.21.5-2.28.44-2.2L90,28.06l.44-2.21.38-2.15.31-2.15.32-2,.31-2,.25-2,.19-1.83.19-1.7.13-1.64.13-1.52.06-1.39V5.08l-.06-1-.07-.88-.12-.7-.19-.63-.19-.44-.25-.25L91.58,1,91.27,1,91,1.17l-.38.31L90.13,2l-.38.57-.44.75-.5.95-.51,1-.5,1.2-.51,1.32-.57,1.39-.56,1.58-.51,1.64-.57,1.71-.57,1.83-.56,2-.57,2-.57,2.08-.57,2.15-.57,2.15-.5,2.2-.51,2.21-.5,2.21-.51,2.28-.44,2.2-.44,2.21-.44,2.21L78,43.9,77.63,46l-.31,2L77,50l-.25,2-.19,1.83-.19,1.7-.12,1.64-.13,1.52-.06,1.39v2.46l.06,1,.06.88.13.7.19.63.19.44.25.25Zm-2-.5h.32l.38-.19.38-.26.44-.44.44-.63.5-.69.51-.89.57-1,.56-1.13.64-1.26.63-1.39.63-1.52.69-1.58.63-1.7.7-1.83.69-1.89.7-2,.69-2,.7-2.08.63-2.09.69-2.21.63-2.14L88.55,35l.63-2.21.64-2.21.56-2.21.51-2.14.5-2.15L91.9,22l.44-2,.38-2,.38-1.89.31-1.77.32-1.71L94,11l.19-1.51.13-1.39.12-1.26.07-1.2v-1l-.07-.88L94.36,3l-.13-.57L94,2l-.18-.32-.26-.19h-.31l-.38.19-.38.25-.44.45L91.65,3l-.51.69-.5.89-.57,1L89.5,6.72,88.87,8l-.63,1.39-.63,1.52-.7,1.58-.63,1.7L85.59,16l-.7,1.89-.69,2-.7,2L82.81,24,82.18,26l-.7,2.21-.63,2.14-.63,2.21-.63,2.21L79,37l-.57,2.21-.5,2.14-.51,2.15-.5,2.08-.45,2-.37,2-.38,1.89-.32,1.77-.31,1.7-.26,1.65L74.6,58.1l-.12,1.39-.13,1.26L74.29,62v1l.06.88.06.76.13.57.19.44.19.32Zm-2-.63h.31l.38-.13.38-.25.44-.44.51-.57.56-.7.57-.82.63-.94.63-1.14.7-1.2L79,57.91l.76-1.45.76-1.58.75-1.64.83-1.77.75-1.83.82-1.89.82-2,.82-2.08.83-2,.75-2.15.82-2.14.76-2.15.76-2.14L90,30.9l.69-2.15.63-2.08L92,24.58l.57-2.08.57-2,.51-1.95.5-1.9.44-1.76L95,13.22l.38-1.57.25-1.52.26-1.39.18-1.26.13-1.14.06-1V3.69l-.12-.63L96,2.62l-.19-.32-.25-.19h-.32l-.37.13-.38.25L94,2.93l-.5.57L93,4.2,92.4,5,91.77,6,91.14,7.1l-.69,1.2-.7,1.39L89,11.14l-.76,1.58-.76,1.64-.82,1.77L85.9,18l-.82,1.89-.82,2-.82,2.08-.82,2-.76,2.15L81,30.2l-.76,2.15-.75,2.14-.76,2.21-.69,2.15-.64,2.08L76.75,43l-.57,2.08-.57,1.95-.5,2-.51,1.9-.44,1.76-.38,1.71L73.41,56l-.26,1.52-.25,1.39-.19,1.26-.13,1.14-.06,1v1.64l.13.63.12.44.19.32Zm-1.9-.76.25.06.38-.12.45-.26.44-.38.57-.5.56-.7L74.6,62l.7-.88L76,60.06l.76-1.2.82-1.33.82-1.39.82-1.51.89-1.58.94-1.7.89-1.83.94-1.83.89-2,.94-2,1-2,.95-2.08.88-2.08,1-2.09.88-2.14.82-2.08L91,29.19l.82-2.08L92.53,25l.76-2,.69-2,.63-1.89.57-1.83.57-1.71.5-1.7.45-1.58.37-1.45.32-1.39.25-1.26.19-1.14.19-1,.06-.88v-.7L98,3.88l-.12-.5-.19-.32-.26-.19-.25-.06-.38.12-.44.26-.44.38-.57.5-.57.7-.63.82-.69.88-.7,1.07L92,8.74l-.82,1.33-.82,1.39L89.56,13l-.88,1.58-1,1.7-.88,1.83-.95,1.83-.88,2-1,2-.94,2-.95,2.08L81.29,30l-.94,2.09-.89,2.14-.82,2.08-.82,2.09L77,40.49l-.75,2.08-.76,2-.7,2-.63,1.89-.57,1.83L73,52l-.51,1.7-.44,1.58-.38,1.45-.31,1.39-.26,1.26-.19,1.14-.19,1-.06.88v.7l.06.63.13.5.19.32Zm-1.89-.89.31.07.32-.07.44-.18.51-.38.56-.51.64-.63.69-.76.69-.88.82-1,.83-1.14.88-1.26L77,55.77l1-1.52,1-1.51,1-1.65,1-1.76,1-1.77,1.07-1.89,1-1.9,1.08-2,1.07-2,1-2,1.07-2,1-2.09,1-2,1-2.08.88-2,.95-2,.82-2,.82-1.89.76-1.83L96.19,18l.7-1.7.56-1.65L98,13.16l.5-1.45.38-1.33.38-1.26L99.47,8l.19-1,.13-.82.06-.75V4.77l-.12-.51-.13-.32-.25-.18L99,3.69l-.31.07-.45.18-.5.38-.57.51-.63.63-.69.76-.7.88-.82,1-.82,1.14-.88,1.26-.89,1.32-.94,1.52-1,1.51-1,1.65-1,1.76-1,1.77-1.08,1.89-1,1.9-1.07,2-1.07,2-1,2-1.08,2-1,2.09-.94,2-1,2.08-.89,2-.94,2-.82,2L74,45.92l-.76,1.83-.7,1.83-.69,1.7-.57,1.64-.5,1.52-.51,1.45-.38,1.33-.38,1.26-.25,1.14-.19,1-.12.82-.07.75v.63l.13.51.13.32Z"/></g><g class="b"><path class="c" d="M154.07.22l-.31.06-.25.26-.32.38-.32.56-.25.7-.25.82-.32,1-.25,1.07-.25,1.26-.25,1.39-.19,1.52-.19,1.64-.25,1.7-.13,1.83-.19,2-.13,2-.12,2.08L150,22.56l-.06,2.15L149.78,27v2.28l-.06,2.27v4.54l.06,2.27v2.28l.13,2.27L150,45l.13,2.14.12,2.08.13,2,.19,2,.13,1.83.25,1.7.19,1.64.19,1.52.25,1.39.25,1.26.25,1.07.32,1,.25.82.25.7.32.57.32.37.25.26.31.06.32-.06.25-.26.32-.37.31-.57.26-.7.25-.82.31-1,.26-1.07.25-1.26.25-1.39.19-1.52.19-1.64.25-1.7.13-1.83.19-2,.12-2,.13-2.08.13-2.14.06-2.15.13-2.27V38.34l.06-2.27V31.53l-.06-2.27V27l-.13-2.27-.06-2.15-.13-2.14-.13-2.08-.12-2-.19-2-.13-1.83-.25-1.7L157,9.25l-.19-1.52-.25-1.39-.25-1.26L156.09,4l-.31-1-.25-.82-.26-.7L155,.92l-.32-.38-.25-.26Zm2.09.06-.32.07-.31.19-.32.38-.32.56-.31.63-.32.82-.38,1L153.57,5l-.32,1.26-.31,1.33-.32,1.51-.31,1.58L152,12.47l-.25,1.76-.32,1.9-.25,2-.25,2.08-.25,2.08-.19,2.21-.26,2.21L150,28.94l-.12,2.34-.19,2.27-.13,2.27-.12,2.27-.07,2.27-.06,2.21-.06,2.21V51l.06,2,.06,1.83.07,1.7.12,1.64.13,1.52.19,1.38.12,1.27.19,1.2.26.94.19.89.25.69.25.57.25.38.32.25.25.13.32-.07.31-.19.32-.37.31-.57.32-.63.31-.82.38-1,.32-1.08.31-1.26.32-1.33.32-1.51.31-1.58.32-1.77.25-1.76.31-1.9.26-2,.25-2.08.25-2.08.19-2.21.25-2.21.19-2.21.13-2.34.19-2.27.13-2.27.12-2.27.06-2.27.07-2.21.06-2.21V16.63l-.06-1.95-.07-1.84-.06-1.7-.12-1.64L158.43,8l-.19-1.38-.13-1.27-.19-1.2-.25-.94-.19-.89-.25-.69L157,1l-.26-.38-.31-.25Zm2,.19-.26.07-.37.19-.32.31-.38.51-.31.69-.38.76-.38.94L155.34,5,155,6.28l-.44,1.33-.38,1.45-.38,1.58-.44,1.7-.38,1.83L152.5,16l-.38,2-.38,2-.38,2.08L151,24.27l-.37,2.21-.32,2.27L150,31l-.25,2.28-.31,2.27-.26,2.21L149,40.05l-.25,2.21-.12,2.21-.19,2.14-.13,2-.06,2-.13,2v1.83l-.06,1.7v1.65l.06,1.51.06,1.39.13,1.32.06,1.14.19,1,.13.88.25.7.19.57.25.44.26.25.31.13.25-.07.38-.19.32-.31.38-.51.31-.69.38-.76.38-.94.44-1.08.38-1.26.44-1.33.38-1.45.38-1.58.44-1.7.38-1.83.44-1.83.38-2,.38-2,.38-2.08.31-2.15.38-2.21.32-2.27.31-2.27.26-2.27.31-2.28.25-2.21.19-2.27.26-2.21.12-2.21.19-2.14.13-2,.06-2,.13-2V13.16l.06-1.7V9.81L160,8.3l-.07-1.39-.12-1.32-.07-1.14-.18-1-.13-.88-.25-.7L159,1.29l-.26-.44L158.49.6Zm2.08.32h-.32l-.31.19-.38.31-.38.51-.44.63-.38.76-.44.94-.51,1.08-.44,1.13-.5,1.33-.51,1.45-.5,1.58-.51,1.64-.5,1.77-.51,1.83-.5,2-.51,2-.5,2.09-.51,2.14-.5,2.15-.44,2.21-.45,2.27L149.78,33l-.38,2.27L149,37.52l-.31,2.21-.38,2.21L148,44.09l-.25,2.14-.25,2-.26,2-.19,1.9L146.88,54l-.13,1.77-.12,1.64-.07,1.51v2.65l.07,1.14.06,1.07.13.89.18.69.13.57.25.44.26.32.25.12h.31l.32-.19.38-.31.38-.51.44-.63.38-.76.44-.94.5-1.08.45-1.13.5-1.33.51-1.45.5-1.58.51-1.64.5-1.77.51-1.83.5-1.95.51-2,.5-2.09.51-2.14.5-2.15.44-2.21.44-2.27.45-2.21.37-2.27.45-2.27.31-2.21.38-2.21.32-2.15.25-2.14.25-2,.25-2,.19-1.9.13-1.83.13-1.77.12-1.64.07-1.51V6l-.07-1.14-.06-1.07-.13-.89-.19-.69L161,1.67l-.26-.44-.25-.31Zm2,.44H162l-.37.19-.38.25-.38.51-.44.57-.51.75-.5.89-.51,1-.57,1.2-.57,1.26-.56,1.39-.57,1.57L156,12.4l-.63,1.77L154.71,16l-.64,1.89-.63,2-.63,2L152.24,24l-.63,2.14L151,28.31l-.57,2.21-.57,2.21-.56,2.21-.51,2.27-.5,2.14-.44,2.21-.51,2.15-.38,2.08-.38,2-.38,2-.25,1.9-.31,1.83-.19,1.7-.26,1.64-.12,1.52-.13,1.39-.06,1.26v2.21l.06.88.13.69.12.64.19.44.26.31.25.13h.31l.38-.19.38-.25.38-.51.44-.57.51-.75.5-.89.51-1,.56-1.2.57-1.26.57-1.39.57-1.57.63-1.58.63-1.77.63-1.83.63-1.89.64-2,.63-2,.56-2.15.64-2.14.63-2.15.56-2.21.57-2.21.57-2.21.51-2.27.5-2.14.44-2.21.51-2.15.38-2.08.38-2,.37-2,.26-1.9.31-1.83.19-1.7L163,10.7l.13-1.52.13-1.38.06-1.27V4.32l-.06-.88-.13-.69L163,2.11l-.19-.44-.25-.31Zm2,.57h-.32l-.32.13-.37.25-.45.44-.5.57-.51.75-.56.83-.57,1L160,6.91l-.63,1.26-.7,1.33L158,11l-.7,1.58-.75,1.71-.7,1.76-.76,1.83-.75,2-.76,2-.76,2L152.05,26l-.69,2.15-.76,2.21-.69,2.14-.7,2.21-.63,2.15L148,39l-.63,2.15-.57,2.08-.57,2.08-.5,2-.44,2-.44,1.83L144.42,53l-.32,1.7-.31,1.58-.26,1.52-.19,1.38-.12,1.27-.07,1.2-.06,1v.88l.06.76.13.56.13.45.25.31.25.19h.32l.31-.12.38-.26.44-.44.51-.57.5-.75.57-.83.57-1,.63-1.13.63-1.26.7-1.33.69-1.51.69-1.58.76-1.71.7-1.76.75-1.83.76-2,.76-2,.76-2,.75-2.08.7-2.15.76-2.21.69-2.14.69-2.21.64-2.15.63-2.21.63-2.14.57-2.09.56-2.08.51-2,.44-2,.44-1.83.38-1.83.32-1.7.31-1.58.25-1.52.19-1.38.13-1.27L165,6l.07-1V4.07L165,3.31l-.12-.56-.13-.45L164.49,2Zm1.95.69-.31-.06-.32.13-.44.25-.44.44-.51.51-.57.69-.63.82-.63,1-.69,1.07-.76,1.2-.69,1.32-.82,1.46-.82,1.57-.83,1.65-.82,1.7L156,18l-.82,1.89-.88,1.9-.89,2-.88,2.08L151.68,28l-.83,2.09L150,32.22l-.82,2.15-.82,2.14-.75,2.15-.76,2.08-.7,2.09-.69,2-.63,1.95-.57,1.9-.5,1.89-.51,1.77L142.84,54l-.38,1.64-.38,1.45-.25,1.39-.25,1.26-.13,1.14-.13,1-.06.88.06.76.07.63.12.44.19.32.25.19.32.06.32-.13.44-.25.44-.44.5-.51.57-.69.63-.82.64-.95.69-1.07.76-1.2.69-1.32.82-1.46.82-1.57.82-1.65.82-1.7.89-1.83.82-1.89.88-1.9.89-2,.88-2.08.88-2.08.82-2.09.82-2.14.82-2.15.82-2.14.76-2.15.76-2.08.69-2.09.7-2,.63-1.95.57-1.9.5-1.89.51-1.77.44-1.64.38-1.64.38-1.45.25-1.39.25-1.26.13-1.14.12-1,.07-.88-.07-.76-.06-.63L166.63,3l-.18-.32Zm1.9.82-.26-.06-.38.06-.44.26-.5.37-.51.51-.63.63-.63.82-.76.89-.69,1.07L162.47,9l-.82,1.27-.89,1.39-.88,1.51-.95,1.58L158,16.38l-1,1.77L156,20l-1,1.89-1,2-1,2-1,2.09-.94,2-1,2.08-.95,2.08-.88,2.09-1,2.08-.82,2.08-.88,2-.76,2-.76,1.95-.69,1.84-.63,1.83-.64,1.76-.56,1.64-.45,1.58-.44,1.45-.38,1.33L140,58.92l-.19,1.14-.19,1-.13.88v.76l.07.57.06.5.19.32.25.19.25.06.38-.06.44-.26.51-.37.5-.51.64-.63.63-.82.75-.88.7-1.08.82-1.13.82-1.27.88-1.39.89-1.51.94-1.58.95-1.64,1-1.77,1-1.83,1-1.89.94-2,1-2,1-2.09.95-2,1-2.08.95-2.08.88-2.09,1-2.08.82-2.08.88-2,.76-2,.76-1.95.69-1.83.63-1.84.63-1.76.57-1.64.44-1.58.44-1.45.38-1.33.32-1.26.19-1.14.19-1,.12-.88V4.89l-.06-.57-.06-.5-.19-.32ZM170,4.2l-.32-.07-.37.07-.45.19-.5.38-.57.44-.63.63-.69.76-.83.88-.75.95L164,9.56l-.94,1.2-.95,1.33-1,1.45-1.07,1.51-1,1.64L158,18.34l-1.08,1.76-1.13,1.83-1.14,1.9-1.07,2-1.14,2-1.07,2-1.14,2-1.07,2-1,2-1.07,2-.95,2-1,2-.88,2-.89,1.89-.82,1.83-.75,1.77-.7,1.64-.63,1.64L139.87,54l-.57,1.45-.44,1.33L138.48,58l-.25,1.07-.25,1-.19.88-.06.76v.57l.06.5.19.32.19.25.31.07.38-.07.44-.19.51-.38.57-.44.63-.63.69-.76.82-.88.76-.95.88-1.13,1-1.2.95-1.33.94-1.45,1.08-1.51,1-1.64,1.07-1.65,1.07-1.76,1.14-1.83,1.14-1.9,1.07-2,1.13-2,1.08-2,1.13-2,1.08-2,1-2,1.07-2,.95-2,1-1.95.88-2L164.8,22l.82-1.83.76-1.77.7-1.64.63-1.64.57-1.52.56-1.45.45-1.33.37-1.26.26-1.07.25-1,.19-.88.06-.76V5.27l-.06-.5-.19-.32Zm1.77,1.07-.32-.13-.38.07-.44.19-.5.31-.64.44-.63.57-.75.7-.82.82-.89.94-.94,1-.95,1.2-1.07,1.27L162.34,14l-1.07,1.45L160.07,17l-1.14,1.64-1.2,1.64-1.19,1.77-1.27,1.83-1.2,1.83-1.26,1.89-1.2,2-1.26,2-1.2,1.95-1.14,2-1.13,1.89-1.14,2-1.07,1.9-1,1.89-1,1.83-1,1.77-.82,1.7L140.06,50l-.76,1.58-.69,1.51L138,54.5l-.57,1.33L137,57l-.38,1.07-.25.95-.25.88-.13.76v.57l.06.5.13.38.19.19.32.13.38-.07.44-.19.5-.31.63-.44.63-.57.76-.7.82-.82.89-.94.94-1,.95-1.2,1.07-1.27,1.08-1.32,1.07-1.45,1.2-1.58L149.21,49l1.2-1.64,1.2-1.77,1.26-1.83,1.2-1.83L155.34,40l1.2-2,1.26-2,1.2-2,1.13-2,1.14-1.89,1.14-2,1.07-1.89,1-1.9,1-1.83.95-1.77.82-1.7.82-1.64.75-1.58.7-1.51.57-1.39.56-1.33.45-1.2.37-1.07.26-.95.25-.88.13-.76V6.34l-.07-.5-.12-.38Zm1.7,1.14-.25-.13h-.38l-.5.19-.51.25-.63.44-.76.51-.76.63-.88.76-.88.88-1,1L165.81,12l-1.07,1.2-1.2,1.33-1.2,1.39-1.2,1.45L159.82,19l-1.26,1.58-1.33,1.7L155.9,24l-1.38,1.83-1.33,1.77-1.33,1.89-1.32,1.84-1.33,1.89-1.32,1.89-1.26,1.83-1.2,1.9-1.2,1.83-1.14,1.76L142,44.15,141,45.92,140,47.56l-.95,1.58-.82,1.51-.76,1.45-.69,1.39-.63,1.27-.51,1.13L135.2,57l-.31.95-.26.89-.19.69-.06.63v.51l.06.31.26.25.25.13h.38l.5-.19.51-.25.63-.44.76-.51.75-.63.89-.76.88-.88,1-1,1.07-1.07,1.08-1.2,1.2-1.33,1.2-1.39L147,50.21l1.33-1.58,1.26-1.57,1.33-1.71,1.32-1.7,1.39-1.83L155,40.05l1.32-1.89,1.33-1.84,1.32-1.89,1.33-1.89,1.26-1.83,1.2-1.9,1.2-1.83,1.14-1.76,1.07-1.77,1.07-1.77,1-1.64.95-1.58.82-1.51.75-1.45.7-1.39.63-1.27.5-1.13.45-1.07.31-1,.25-.88.19-.7.07-.63V7l-.07-.31Zm1.71,1.26-.32-.13-.38-.06-.44.13-.57.25-.69.38-.76.5-.82.57-.88.69-1,.82-1,.95-1.14,1.07-1.2,1.08-1.2,1.26-1.32,1.33-1.33,1.38-1.33,1.46-1.38,1.51-1.46,1.58-1.45,1.7L155,25.78l-1.45,1.77-1.45,1.77-1.45,1.77-1.39,1.76-1.45,1.83-1.33,1.77-1.39,1.77L143.85,40l-1.26,1.7-1.2,1.7L140.25,45l-1.07,1.64-1,1.51-.95,1.45L136.4,51l-.82,1.33L135,53.62l-.63,1.14-.51,1-.38.94-.31.82-.25.7-.07.63-.06.5.13.38.12.19.32.13.38.06.44-.13.57-.25.69-.38.76-.5.82-.57.88-.69,1-.82,1-1L141,54.76l1.2-1.08,1.2-1.26,1.32-1.33,1.33-1.38,1.32-1.46,1.39-1.51,1.45-1.58,1.46-1.7,1.45-1.64,1.45-1.77L156,38.28l1.45-1.77,1.39-1.76,1.45-1.83,1.33-1.77L163,29.38l1.26-1.77,1.26-1.7,1.2-1.7,1.14-1.65L169,20.92l1-1.51,1-1.45.82-1.39.82-1.33L173.2,14l.63-1.14.51-1,.37-.94.32-.82.25-.7.06-.63.07-.5-.13-.38ZM176.67,9l-.25-.12L176,8.81l-.44.12-.63.19-.63.32-.83.44-.82.57-.94.63-1.08.75-1.07.89-1.2.95-1.26,1.07-1.26,1.13-1.39,1.2L163.1,18.4l-1.45,1.39-1.52,1.45-1.51,1.51-1.52,1.52-1.57,1.58L154,27.49l-1.52,1.7-1.58,1.71-1.51,1.64-1.51,1.7L146.31,36l-1.45,1.7-1.39,1.7L142.08,41l-1.26,1.64-1.26,1.57-1.14,1.52-1.14,1.45-1,1.39L135.33,50l-.82,1.26-.76,1.14-.69,1.13-.57,1-.44.89-.38.82-.26.69-.12.57-.07.5.07.38.19.26.25.12.38.07.44-.13.63-.19.63-.32.82-.44.82-.57,1-.63,1.07-.75,1.08-.89,1.2-.94L141,52.86l1.26-1.13,1.39-1.2,1.39-1.33,1.45-1.39L148,46.36l1.52-1.51L151,43.33l1.58-1.58,1.58-1.64,1.51-1.7,1.58-1.71,1.52-1.64,1.51-1.7,1.52-1.71,1.45-1.7,1.39-1.7,1.39-1.65L167.33,25l1.26-1.57,1.14-1.52,1.13-1.45,1-1.39.95-1.39.82-1.26.76-1.14.69-1.13.57-1,.44-.89.38-.82.25-.69.13-.57.06-.5-.06-.38Zm1.52,1.46-.26-.19-.38-.07-.5.07-.57.19-.69.25-.82.44-.89.44-1,.63-1.07.7-1.14.76-1.26.94-1.26,1L167,16.63l-1.45,1.14L164,19l-1.51,1.32-1.58,1.33L159.31,23l-1.64,1.45L156,26l-1.7,1.52-1.64,1.58L151,30.64l-1.64,1.65-1.64,1.57-1.58,1.64-1.51,1.58-1.52,1.58-1.45,1.58-1.39,1.51L139,43.27l-1.26,1.45-1.2,1.39-1.14,1.39-1,1.26-.95,1.2-.82,1.13-.69,1.08-.63.94-.51.89-.44.76-.31.69-.19.63-.07.44.07.38.12.25.25.19.38.07.51-.07.57-.19.69-.25.82-.44.89-.44,1-.63,1.07-.7,1.13-.75,1.27-.95,1.26-1L141.2,51l1.45-1.14,1.51-1.2,1.52-1.32L147.26,46l1.58-1.39,1.64-1.45,1.64-1.51,1.7-1.52,1.64-1.58L157.1,37l1.64-1.65,1.65-1.57L162,32.1l1.52-1.58L165,28.94l1.46-1.58,1.38-1.51,1.33-1.52,1.26-1.45,1.2-1.39,1.14-1.39,1-1.26.94-1.2.82-1.13.7-1.08.63-.94.5-.89.45-.76.31-.69.19-.63.06-.44-.06-.38ZM179.57,12l-.25-.19-.38-.06h-.5l-.57.19-.69.19-.83.38-.94.44-1,.5-1.14.63-1.2.7-1.26.82-1.39.88-1.45,1-1.51,1.08-1.52,1.07-1.64,1.2-1.64,1.26-1.71,1.33-1.7,1.32-1.77,1.39-1.7,1.45L153,29l-1.77,1.52L149.53,32l-1.7,1.51L146.12,35l-1.64,1.51L142.84,38l-1.52,1.45-1.51,1.45-1.39,1.39L137,43.71,135.77,45l-1.2,1.26-1.07,1.2-1,1.13-.89,1.14-.82,1-.63.88-.57.89-.5.75-.32.64-.25.56-.06.51v.38l.12.25.26.19.38.06h.5l.57-.19.69-.19.82-.38,1-.44,1-.5,1.14-.63,1.19-.7,1.27-.82,1.39-.88,1.45-1,1.51-1.08L143.22,48l1.64-1.2,1.64-1.26,1.7-1.33,1.71-1.32,1.77-1.39,1.7-1.45,1.77-1.45,1.76-1.52,1.71-1.45,1.7-1.51L162,32.6l1.64-1.51,1.64-1.52,1.51-1.45,1.52-1.45,1.39-1.39,1.39-1.39,1.26-1.33,1.2-1.26,1.07-1.2,1-1.13.88-1.14.82-1,.64-.88.56-.89.51-.75.31-.63.26-.57.06-.51v-.38Zm1.33,1.58-.25-.19-.38-.06h-.51l-.56.06-.76.19-.82.31-1,.38-1.07.45-1.14.56-1.26.7-1.33.69-1.45.82-1.45.89-1.58.94-1.64,1-1.7,1.14-1.71,1.13-1.76,1.2L158.81,25,157,26.29l-1.83,1.32-1.9,1.33-1.83,1.39-1.76,1.39-1.83,1.39-1.77,1.38-1.77,1.39-1.64,1.39L141,38.66l-1.58,1.39-1.51,1.32-1.46,1.27-1.32,1.26-1.26,1.2-1.2,1.13-1.08,1.08-.94,1-.82.94-.76.89-.63.82-.51.76-.38.63-.25.57-.12.44v.38l.06.31.25.19.38.06h.5l.57-.06.76-.19.82-.31.95-.38,1.07-.44,1.14-.57,1.26-.7,1.32-.69,1.46-.82,1.45-.89,1.58-.94,1.64-1,1.7-1.14L145.81,45l1.76-1.2,1.77-1.2,1.83-1.33L153,40l1.89-1.33,1.83-1.39,1.77-1.39,1.83-1.39,1.77-1.38,1.77-1.39,1.64-1.39,1.64-1.39,1.58-1.39,1.51-1.32L171.68,25,173,23.7l1.26-1.2,1.2-1.13,1.07-1.08,1-1,.82-.94.76-.89.63-.82.51-.76.37-.63.26-.56.12-.45v-.38Zm1.14,1.7-.19-.19-.38-.12H181l-.57.06-.75.13-.82.25-1,.31-1.08.38-1.2.51-1.26.57-1.39.63-1.45.69-1.58.82-1.57.89-1.71.88-1.77,1-1.76,1-1.83,1.07-1.9,1.14-1.89,1.2-1.89,1.2-2,1.26-1.89,1.2-1.9,1.32-1.89,1.27L146,34l-1.76,1.32-1.77,1.27-1.77,1.26-1.64,1.26-1.58,1.26L136,41.5l-1.39,1.2-1.39,1.14L132,44.91l-1.13,1-1,.95-1,.88-.76.82-.69.82-.57.69-.38.57-.31.57-.19.44V52l.12.32.19.19.38.12h.51l.56-.06.76-.13.82-.25,1-.31,1.07-.38,1.2-.51,1.27-.57,1.38-.63,1.46-.69,1.57-.82,1.58-.89,1.71-.88,1.76-1,1.77-1,1.83-1.07,1.9-1.14,1.89-1.2,1.89-1.2,2-1.26,1.89-1.2,1.9-1.32,1.89-1.27,1.89-1.26,1.77-1.32L165.69,31l1.76-1.26,1.65-1.26,1.57-1.26,1.52-1.14,1.39-1.2L175,23.76l1.2-1.07,1.13-1,1-.95.95-.88L180,19l.69-.82.57-.69.38-.57.31-.57.19-.44v-.38ZM183.17,17l-.25-.19-.32-.19-.5-.06-.63.06-.7.06-.88.19-1,.26-1.07.38-1.2.37-1.33.51-1.45.57-1.51.63-1.58.69-1.64.76-1.77.82-1.83.88-1.83.89-1.9,1-2,1-2,1-2,1.13-2,1.08-2,1.13-2,1.2-2,1.14-2,1.2-1.89,1.13-1.83,1.2L140.5,37l-1.76,1.14-1.64,1.13-1.58,1.14L134,41.5l-1.39,1-1.26,1-1.2.95-1.07.88-1,.82-.82.82-.7.7-.63.69-.44.57-.31.5-.19.45-.07.37.07.32.25.19.31.19.51.06.63-.06.69-.06.89-.19,1-.26,1.07-.38,1.2-.37,1.33-.51,1.45-.57,1.51-.63,1.58-.69,1.64-.76,1.77-.82,1.83-.88,1.83-.89,1.89-1,2-1,2-1,2-1.13,2-1.08,2-1.13,2-1.2,2-1.14,2-1.2,1.9-1.13,1.83-1.2,1.76-1.14,1.77-1.14,1.64-1.13,1.58-1.14,1.52-1.07,1.38-1,1.27-1,1.2-.95,1.07-.88,1-.82.82-.82.69-.7.63-.69.45-.57.31-.5.19-.45.06-.37Z"/></g><g class="b"><path class="d" d="M183.17,50.59l.07-.32-.07-.37-.19-.45-.31-.5-.44-.57-.64-.69-.69-.7-.82-.82-1-.82L178,44.47l-1.2-.95-1.27-1-1.38-1-1.52-1.07-1.58-1.14-1.64-1.13L167.65,37l-1.77-1.14-1.83-1.2-1.9-1.13-2-1.2-2-1.14-2-1.2-2-1.13-2-1.08-2-1.13-2-1-2-1-1.89-1-1.83-.89-1.83-.88-1.77-.82-1.64-.76-1.58-.69L134.32,19l-1.45-.57-1.33-.51-1.2-.37-1.07-.38-1-.26-.88-.18-.7-.07-.63-.06-.51.06-.31.19L125,17l-.07.32.07.38.19.44.31.5.44.57.63.69.7.7.82.82,1,.82,1.07.88,1.2.95,1.26,1,1.39,1,1.52,1.07,1.58,1.14,1.64,1.14,1.76,1.13,1.77,1.14,1.83,1.2,1.9,1.13,1.95,1.2,2,1.14,2,1.2,2,1.13,2,1.08,2,1.13,2,1,2,1,1.89,1,1.83.89,1.83.88,1.77.82,1.64.76,1.58.69,1.51.63,1.45.57,1.33.51,1.2.38,1.07.37,1,.26.88.19.7.06.63.06.5-.06.32-.19ZM182,52.36l.12-.32v-.38l-.19-.44-.31-.57-.38-.56-.57-.7-.69-.82-.76-.82-.95-.88-1-.95-1.13-1L175,43.84l-1.39-1.14-1.39-1.2-1.52-1.14L169.1,39.1l-1.64-1.26-1.77-1.26-1.77-1.26L162.15,34l-1.89-1.26-1.89-1.27-1.9-1.32-1.89-1.2-2-1.26-1.89-1.2-1.89-1.2-1.9-1.14-1.83-1.07-1.77-1-1.76-1-1.71-.88-1.58-.89-1.57-.82-1.45-.69-1.39-.63-1.27-.57-1.2-.51-1.07-.37-1-.32-.82-.25-.76-.13-.56-.06h-.51l-.38.12-.19.19-.12.32v.38l.19.44.31.57.38.57.57.69.69.82.76.82,1,.88,1,.95,1.13,1,1.2,1.07,1.39,1.14L136,26.1l1.51,1.14,1.58,1.26,1.64,1.26L142.46,31l1.77,1.27L146,33.61l1.89,1.26,1.89,1.27,1.9,1.32,1.89,1.2,2,1.26,1.89,1.2,1.89,1.2,1.9,1.14L163,44.53l1.76,1,1.77,1,1.71.88,1.57.89,1.58.82,1.45.69,1.39.63,1.26.57,1.2.51,1.08.38,1,.31.82.25.76.13.56.06h.51l.38-.12Zm-1.14,1.7.06-.31v-.38l-.12-.44-.26-.57-.37-.63L179.7,51l-.63-.82-.76-.89-.82-.94-1-1-1.07-1.08-1.2-1.13L173,43.9l-1.33-1.26-1.45-1.27-1.51-1.32-1.58-1.39-1.64-1.39-1.64-1.39-1.77-1.39-1.77-1.38-1.83-1.39-1.76-1.39-1.83-1.39L153,27.61l-1.83-1.32L149.34,25l-1.77-1.2-1.76-1.19-1.71-1.14-1.7-1.14-1.64-1-1.58-.94-1.45-.89-1.46-.82L135,15.94l-1.26-.7-1.14-.56-1.07-.45-.95-.38-.82-.31-.76-.19-.56-.06h-.51l-.38.06-.25.19-.06.31v.38l.12.45.25.56.38.63.51.76.63.82.76.89.82.94.94,1,1.08,1.08,1.2,1.13,1.26,1.2L136.46,25l1.46,1.27,1.51,1.32L141,28.94l1.64,1.39,1.64,1.39,1.77,1.39,1.77,1.38,1.83,1.39,1.76,1.39,1.83,1.39,1.9,1.33L157,41.31l1.83,1.33,1.77,1.2,1.76,1.2,1.71,1.13,1.7,1.14,1.64,1,1.58.94,1.45.89,1.45.82,1.33.69,1.26.7,1.14.57,1.07.44,1,.38.82.31.76.19.56.06h.51l.38-.06Zm-1.33,1.58.13-.25V55l-.06-.51-.25-.56-.32-.64-.51-.75-.56-.89-.63-.88-.83-1-.88-1.14-1-1.13-1.07-1.2L172.38,45l-1.26-1.33-1.39-1.39-1.39-1.39-1.52-1.45L165.31,38l-1.64-1.52L162,35l-1.71-1.52L158.62,32l-1.71-1.45L155.15,29l-1.77-1.45-1.7-1.45-1.77-1.39-1.71-1.32-1.7-1.33-1.64-1.26-1.64-1.2-1.52-1.07-1.51-1.08-1.45-1-1.39-.88-1.26-.82-1.2-.7-1.14-.63-1-.5-1-.44-.82-.38-.69-.19-.57-.19h-.5l-.38.06-.26.19-.12.25v.38l.06.51.25.57.32.63.5.75.57.89.63.88.82,1,.89,1.14,1,1.13,1.07,1.2,1.2,1.27L137,23.89l1.39,1.39,1.39,1.39,1.51,1.45,1.52,1.45,1.64,1.52,1.64,1.51,1.71,1.52,1.7,1.51,1.7,1.45L153,38.6l1.77,1.45,1.7,1.45,1.77,1.39,1.7,1.33,1.71,1.32,1.64,1.26,1.64,1.2,1.52,1.08L168,50.15l1.45,1,1.39.88,1.26.82,1.2.7,1.14.63,1,.5,1,.44.82.38.69.19.57.19h.5l.38-.06Zm-1.38,1.51.12-.25.07-.38-.07-.44-.19-.63-.31-.69-.44-.76-.51-.89-.63-.94-.7-1.08L174.71,50l-.94-1.2-1-1.26-1.14-1.39-1.2-1.39-1.26-1.45-1.33-1.52-1.38-1.51L165,38.66l-1.51-1.58L162,35.5l-1.57-1.64-1.64-1.57-1.65-1.65-1.64-1.57-1.64-1.58L152.12,26l-1.64-1.51L148.84,23l-1.58-1.39-1.58-1.33L144.16,19l-1.51-1.2-1.45-1.14-1.39-1.07-1.26-1-1.27-.94-1.13-.76-1.07-.7-1-.63-.89-.44-.82-.44-.69-.25-.57-.19-.51-.07-.37.07-.26.19-.12.25-.07.38.07.44.19.63.31.69.44.76.51.89.63.94.69,1.08.82,1.13.95,1.2,1,1.26,1.14,1.39,1.2,1.39L139,24.33l1.32,1.52,1.39,1.51,1.46,1.58,1.51,1.58,1.51,1.58,1.58,1.64,1.64,1.58L151,37l1.65,1.57,1.64,1.58,1.7,1.52,1.64,1.51,1.64,1.45L160.89,46l1.58,1.33L164,48.63l1.52,1.2L167,51,168.34,52l1.26,1,1.26.95,1.14.75,1.07.7,1,.63.89.44.82.44.69.25.57.19.5.07.38-.07Zm-1.52,1.46.19-.26.06-.38-.06-.5-.13-.57-.25-.69-.38-.82-.44-.89-.57-1-.69-1.13-.76-1.14L172.82,50l-.95-1.39-1-1.39-1.13-1.45-1.14-1.51-1.26-1.58L166.07,41l-1.39-1.65-1.39-1.7L161.84,36l-1.52-1.71-1.51-1.7-1.52-1.64-1.57-1.71-1.52-1.7-1.58-1.64L151,24.27l-1.51-1.52L148,21.24l-1.52-1.45-1.45-1.39-1.39-1.33-1.39-1.2L141,14.74l-1.26-1.07-1.2-.95-1.08-.88-1.07-.76-1-.63-.82-.57-.82-.44-.63-.32-.63-.19-.44-.12-.38.06-.25.12-.19.26-.06.38.06.5.12.57.26.69.38.82.44.89.57,1,.69,1.13.76,1.14.82,1.26.94,1.39,1,1.39,1.14,1.45,1.14,1.52L140.82,25l1.26,1.64,1.39,1.65,1.39,1.7,1.45,1.7,1.52,1.71,1.51,1.7,1.52,1.64,1.57,1.71,1.52,1.7,1.58,1.64,1.57,1.58,1.52,1.52,1.51,1.51,1.52,1.45,1.45,1.39,1.39,1.33,1.39,1.2,1.26,1.13,1.26,1.08,1.2.94,1.07.89,1.08.75.94.63.83.57.82.44.63.32.63.19.44.13.38-.07Zm-1.51,1.32.12-.19.13-.38-.06-.5-.07-.63-.25-.7-.32-.82-.37-.94-.51-1-.63-1.14-.63-1.26L171.75,51l-.82-1.39-1-1.45-1-1.51L167.9,45l-1.14-1.65-1.2-1.7L164.3,40,163,38.22l-1.39-1.77-1.33-1.77-1.45-1.83-1.39-1.76L156,29.32l-1.45-1.77-1.45-1.77-1.45-1.64-1.46-1.7-1.45-1.58-1.39-1.51-1.32-1.46-1.33-1.38-1.32-1.33-1.2-1.26L141,12.84l-1.14-1.07-1-.94-1-.83L137,9.31l-.82-.57-.76-.5-.69-.38-.57-.25-.44-.13-.38.06-.32.13-.12.19-.13.38.06.5.07.63.25.7.31.82.38.95.51,1L135,14l.63,1.26.82,1.33.82,1.39.95,1.45,1,1.51,1.07,1.65,1.14,1.64,1.2,1.7,1.26,1.7,1.26,1.77,1.39,1.77,1.33,1.77,1.45,1.83,1.39,1.76,1.45,1.77,1.45,1.77L155,41.82l1.45,1.64,1.45,1.7,1.46,1.58,1.39,1.51,1.32,1.46,1.33,1.38,1.32,1.33,1.2,1.26,1.2,1.08,1.14,1.07,1,1,1,.82.88.69.82.57.76.5.69.38L174,60l.44.07h.38Zm-1.71,1.26.25-.25.07-.31v-.51l-.07-.63-.18-.69-.26-.89L173,57l-.44-1.07L172,54.76l-.63-1.27-.7-1.39-.75-1.45-.82-1.51-.95-1.58-1-1.64-1.07-1.77-1.07-1.77-1.14-1.76-1.2-1.83-1.2-1.9-1.26-1.83-1.33-1.89-1.32-1.89-1.33-1.83L155,27.55l-1.33-1.77L152.24,24l-1.32-1.7-1.33-1.7L148.33,19,147,17.39l-1.2-1.45-1.2-1.39-1.2-1.33L142.33,12,141.26,11l-1-1-.88-.88-.89-.76-.75-.63L137,7.16l-.63-.44-.51-.25-.5-.19H135l-.25.13-.26.25-.06.31v.51l.06.63.19.7.26.88.31,1,.44,1.07.51,1.13.63,1.27.69,1.39.76,1.45.82,1.51L140,20l.95,1.64L142,23.45l1.07,1.77L144.23,27l1.2,1.83,1.2,1.9,1.26,1.83,1.32,1.89,1.33,1.9,1.33,1.83,1.32,1.89,1.33,1.77,1.38,1.83,1.33,1.7,1.33,1.71,1.26,1.57,1.32,1.58,1.2,1.45,1.2,1.39,1.2,1.33,1.07,1.2,1.08,1.07,1,1,.88.88.88.76.76.63.76.51.63.44.51.25.5.19h.38Zm-1.7,1.14.19-.19.12-.38.07-.5v-.57l-.13-.76-.25-.88-.25-.95L171.12,57l-.45-1.2-.56-1.33-.57-1.39-.7-1.51L168.09,50l-.82-1.64-.82-1.7-.95-1.77-1-1.83-1-1.89-1.07-1.9-1.14-1.95-1.14-1.9-1.13-2-1.2-1.95-1.26-2-1.2-2-1.27-1.89-1.19-1.83-1.27-1.83-1.2-1.77-1.2-1.64L148.08,17l-1.2-1.58L145.81,14l-1.08-1.32-1.07-1.27-.95-1.2-.94-1-.89-.94-.82-.82-.76-.7-.63-.57L138,5.71l-.5-.31-.44-.19-.38-.07-.32.13-.19.19-.12.38-.07.5v.57l.13.76.25.88.25.95.38,1.07.44,1.2L138,13.1l.57,1.39L139.3,16l.76,1.58.82,1.64.82,1.7,1,1.77,1,1.83,1,1.9,1.07,1.89,1.14,2L148,32.16l1.13,2,1.2,2,1.26,2,1.2,2,1.26,1.89,1.2,1.83,1.27,1.83,1.2,1.77L158.93,49l1.14,1.64,1.2,1.58,1.07,1.45L163.42,55l1.07,1.26.95,1.2.94,1,.89.94.82.82.75.7.64.57.63.44.5.31.44.19.38.07ZM170,63.4l.19-.25.19-.31.06-.51v-.57l-.06-.76-.19-.88-.25-1L169.66,58l-.37-1.26-.45-1.33L168.28,54l-.57-1.52-.63-1.64-.7-1.64-.75-1.77-.83-1.83-.88-1.89-.88-2-1-2-.95-2-1.07-2-1-2-1.08-2-1.13-2-1.07-2-1.14-2-1.07-2-1.14-1.9-1.14-1.83-1.07-1.76-1.07-1.64-1-1.65L147,13.54l-.95-1.45-.95-1.33-1-1.2-.88-1.13-.76-.95-.82-.88L141,5.84l-.63-.63-.57-.44-.51-.38-.44-.19-.38-.07-.31.07-.19.25-.19.32-.06.5v.57l.06.76.19.88.25,1,.25,1.07.38,1.27.44,1.32.57,1.45.57,1.52.63,1.64.7,1.64.75,1.77.82,1.83.89,1.89.88,2,1,1.95.95,2,1.07,2,1,2,1.07,2,1.14,2,1.07,2,1.14,2,1.07,2,1.14,1.9,1.13,1.83L158,49.26l1.07,1.65,1,1.64,1.07,1.51,1,1.45.95,1.33L164,58l.89,1.13.76.95.82.88.69.76.63.63.57.45.5.37.45.19.37.07Zm-1.89.89.25-.19.19-.32.06-.5.07-.57V62l-.13-.88-.19-1-.19-1.14-.32-1.26-.37-1.33L167,54.88l-.44-1.58L166,51.66l-.63-1.76-.63-1.83-.69-1.84-.76-1.95-.76-2-.88-2-.82-2.08-1-2.08L159,34.05,158.05,32l-1-2.08-.95-2-1-2.09-1-2-.94-2-1-1.89-1-1.83-1-1.77-.95-1.64-.94-1.58-.89-1.51-.88-1.39L145.68,9l-.82-1.13-.7-1.07-.75-.89-.63-.82-.63-.63-.51-.5-.5-.38-.45-.26-.38-.06-.25.06-.25.19-.19.32-.06.5-.07.57v.76l.13.88.19,1L140,8.68l.31,1.26.38,1.33.45,1.45.44,1.58.57,1.64.63,1.77.63,1.83.69,1.83.76,1.95.76,2,.88,2,.82,2.08,1,2.08.88,2.09.95,2.08,1,2.08.94,2,1,2.09,1,2,1,2,1,1.89,1,1.83,1,1.77.94,1.64.95,1.58.89,1.52.88,1.38.82,1.27.82,1.13.69,1.08.76.88.63.82.63.63.51.51.5.37.45.26.37.06Zm-1.9.82.26-.19.19-.32.12-.44.06-.63.07-.76-.07-.88-.12-1-.13-1.14-.25-1.26-.25-1.39-.38-1.45L165.31,54l-.44-1.64-.51-1.77-.5-1.89-.57-1.9-.63-1.95-.7-2-.69-2.09-.76-2.08-.75-2.15-.83-2.14-.82-2.15-.82-2.14L156.47,28l-.88-2.08-.88-2.08-.89-2-.88-1.9L152.12,18l-.89-1.83-.82-1.7-.82-1.65-.82-1.57L148,9.82l-.69-1.33-.76-1.2-.69-1.07-.64-1-.63-.82L144,3.76l-.51-.51L143,2.81l-.44-.25-.32-.13-.31.06-.26.19-.19.32-.12.44-.07.63-.06.76.06.88.13,1,.13,1.14.25,1.26.25,1.39.38,1.45.38,1.64.44,1.64.51,1.77.5,1.89.57,1.9.63,1.95.69,2,.7,2.09.76,2.08.75,2.15.82,2.14.82,2.15.83,2.14.82,2.09.88,2.08.88,2.08.89,2,.88,1.9.82,1.89.88,1.83.83,1.7.82,1.65.82,1.57.82,1.46.69,1.32.76,1.2.69,1.07.63.95.64.82.56.69.51.51.44.44.44.25.32.13Zm-1.95.69.25-.19.25-.31.13-.45.12-.56.07-.76v-.88l-.07-1-.06-1.2-.13-1.27-.18-1.38-.26-1.52-.31-1.58-.32-1.7-.38-1.83-.44-1.83-.44-2-.51-2-.56-2.08-.57-2.08L160.2,39l-.63-2.21-.64-2.15-.69-2.21-.69-2.14-.76-2.21-.7-2.15-.75-2.08-.76-2-.76-2-.76-2-.75-1.83-.7-1.76-.75-1.71-.7-1.58-.69-1.51-.7-1.33-.63-1.26-.63-1.13-.57-1L146.37,4l-.5-.76-.51-.57-.44-.44-.38-.25-.31-.13h-.32l-.25.19-.25.31-.13.45-.12.56-.07.76V5l.07,1,.06,1.2.12,1.27.19,1.39.26,1.51.31,1.58.32,1.7.38,1.83.44,1.83.44,2,.5,2,.57,2.08.57,2.09.63,2.14.63,2.21.63,2.15.7,2.21.69,2.14.76,2.21.69,2.15.76,2.08.76,2,.76,2,.75,2,.76,1.83.7,1.76.75,1.71.7,1.58.69,1.51.7,1.33.63,1.26.63,1.14.57,1,.57.82.5.75.5.57.45.44.38.26.31.12Zm-2,.57.25-.13.25-.31.19-.44.13-.64.13-.69.06-.88V61.07l-.06-1.26-.13-1.39L163,56.9l-.25-1.64-.19-1.7-.31-1.83-.26-1.9-.37-2-.38-2-.38-2.08-.51-2.15-.44-2.21-.5-2.14-.51-2.27-.57-2.21-.56-2.21-.57-2.21-.63-2.15L155.9,24l-.56-2.15-.63-2-.64-2L153.44,16l-.63-1.83-.63-1.77-.63-1.57L151,9.25l-.57-1.39-.56-1.26-.57-1.2-.51-1-.5-.89-.51-.75-.44-.57-.38-.51-.38-.25-.38-.19h-.31l-.25.13-.26.31-.19.44-.12.64-.13.69-.06.88V6.53l.06,1.27.13,1.38.12,1.52.26,1.64.19,1.7.31,1.83.25,1.9.38,2,.38,2,.38,2.08.51,2.15.44,2.21.5,2.14.51,2.27.57,2.21.56,2.21.57,2.21.63,2.15.63,2.14.57,2.15.63,2,.63,2,.64,1.89.63,1.83L156,55.2l.63,1.58.57,1.57.57,1.39L158.3,61l.57,1.2.51,1,.5.89.51.75.44.57.38.51.38.25.37.19Zm-2,.44.25-.12.26-.32.25-.44.12-.57.19-.69.13-.89.06-1.07.07-1.14V58.92l-.07-1.51-.12-1.64L161.27,54l-.13-1.83-.19-1.9-.25-2-.25-2-.25-2.14-.32-2.15-.38-2.21-.31-2.21-.44-2.27L158.37,33l-.45-2.21-.44-2.27L157,26.29l-.5-2.15L156,22l-.5-2.09-.51-2-.5-2L154,14.11l-.5-1.77L153,10.7l-.5-1.58L152,7.67l-.5-1.33L151,5.21l-.5-1.08-.44-.94-.38-.76-.44-.63-.38-.51L148.52,1,148.2.79h-.31l-.25.13-.26.31-.25.44-.12.57-.19.7-.13.88-.06,1.07L146.56,6V8.68l.07,1.51.12,1.65.13,1.76.13,1.83.18,1.9.26,2,.25,2,.25,2.14.32,2.15.38,2.21.31,2.21.44,2.27.38,2.27.44,2.21.45,2.27.44,2.21.5,2.15.51,2.14.5,2.09.51,2,.5,1.95.51,1.83.5,1.77.51,1.64.5,1.58.51,1.45.5,1.33.44,1.13.51,1.08.44.94.38.76.44.63.38.51.38.31.31.19Zm-2.08.32.31-.13.26-.25.25-.44.19-.57.25-.7.13-.88.19-1,.06-1.14.12-1.32L160,59.3l.06-1.51V56.14l-.06-1.7V52.61l-.13-2-.06-2-.13-2-.19-2.14-.12-2.21-.26-2.21-.19-2.27-.25-2.21-.31-2.27L158.11,31l-.31-2.27-.32-2.27-.38-2.21-.31-2.15L156.41,20,156,18l-.38-2-.44-1.83-.38-1.83-.44-1.7L154,9.06l-.38-1.45-.44-1.33L152.81,5,152.37,4,152,3l-.38-.76-.31-.69L150.92,1,150.6.73l-.38-.19L150,.47l-.31.13-.26.25-.25.44-.19.57-.25.7-.13.88-.19,1-.06,1.14-.13,1.32-.06,1.39-.06,1.52v1.64l.06,1.7V15l.13,2,.06,2,.13,2,.19,2.14.12,2.21.25,2.21.19,2.27.26,2.21.31,2.28.25,2.27.32,2.27.32,2.27.37,2.21.32,2.15.38,2.08.38,2,.38,2,.44,1.83.38,1.83.44,1.7.38,1.58.38,1.45.44,1.33.38,1.26.44,1.08.38.94.38.76.31.69.38.51.32.31.37.19Zm-2,.19.25-.13.32-.25.25-.38.25-.57.25-.69.19-.89.25-.94.19-1.2.13-1.27.19-1.38.13-1.52.12-1.64.07-1.7.06-1.83.06-2V44.78l-.06-2.21-.06-2.21-.07-2.27-.12-2.27-.13-2.27-.19-2.27-.13-2.34-.19-2.21-.25-2.21-.19-2.21-.25-2.08L157,18.15l-.25-2-.32-1.9-.25-1.76-.32-1.77-.31-1.58-.32-1.51-.31-1.33L154.58,5,154.26,4l-.37-1-.32-.83-.32-.63-.31-.56-.32-.38-.31-.19L152,.28l-.25.13-.32.25-.25.38-.25.57-.25.69-.19.89-.26.94L150,5.33l-.12,1.27L149.72,8l-.13,1.52-.12,1.64-.07,1.7-.06,1.84-.06,1.95v6.19l.06,2.21.06,2.21.07,2.27.12,2.27.13,2.27.19,2.28.12,2.33.19,2.21.26,2.21.19,2.21.25,2.08.25,2.08.25,2,.32,1.9.25,1.76.32,1.77.31,1.58.32,1.51.31,1.33.32,1.26.32,1.08.37,1,.32.82.32.63.31.57.32.37.31.19Z"/></g><g class="b"><path class="e" d="M184.12,18.84l-.19-.25-.32-.13-.5-.12h-.63l-.76.06-.82.13-1,.18-1.14.26-1.26.38-1.32.37-1.46.51-1.51.5-1.64.57-1.71.7-1.83.69-1.83.76-1.89.82-2,.82-2,.95-2,.88-2.08,1-2,.95-2.08,1-2,1.07-2,1-2,1.07-2,1.08-1.89,1-1.9,1.07-1.76,1-1.77,1-1.64,1-1.52,1-1.51.95-1.33.88-1.26.88-1.13.82-1,.82-.89.7-.76.69-.63.63-.5.57-.38.51-.19.44-.06.31.06.32.19.25.32.13.5.12h.63l.76-.06.82-.12,1-.19,1.14-.26,1.26-.38,1.32-.37,1.45-.51,1.52-.5,1.64-.57,1.71-.7,1.82-.69,1.84-.76,1.89-.82,2-.82,2-.95,2-.88,2.08-1,2-1,2.08-1,2-1.07,2-1,2-1.07,2-1.08,1.89-1,1.89-1.07,1.77-1,1.77-1,1.64-1,1.51-1,1.52-.94,1.32-.89,1.27-.88,1.13-.82,1-.82.89-.7.76-.69.63-.63.5-.57.38-.51.19-.44.06-.31Zm.88,1.89-.19-.25-.31-.19-.51-.12-.63-.07h-.69l-.89.07-1,.19-1.13.19-1.26.25-1.39.31-1.45.38-1.58.44-1.71.51-1.7.57-1.83.57-1.89.63-2,.69-2,.76-2.08.76-2.09.82-2.08.82-2.08.82-2.15.88-2.08.95-2.09.88-2.08.95-2,.94-1.95,1-2,.89-1.83.94-1.83.89-1.71.94-1.58.89-1.51.82-1.39.82-1.32.82-1.2.76-1.08.69-.88.69-.82.64-.69.56-.51.57-.38.44-.25.44-.13.38.07.26.19.25.31.19.51.12.63.07h.69l.88-.07,1-.19,1.13-.18,1.26-.26,1.39-.31,1.45-.38,1.58-.44,1.71-.51,1.7-.57,1.83-.56,1.89-.64,2-.69,2-.76,2.08-.75,2.09-.83,2.08-.82,2.08-.82,2.15-.88,2.08-1,2.08-.88,2.09-.95,2-.94,1.95-.95,2-.88,1.83-.95,1.83-.88,1.71-.95,1.57-.89,1.52-.82,1.39-.82,1.32-.82,1.2-.75,1.07-.7.89-.69.82-.63.69-.57.51-.57.38-.44.25-.44.13-.38Zm.76,1.9-.19-.25-.31-.19-.45-.13-.63-.13h-1.64l-1,.07-1.14.12-1.26.19-1.39.26-1.51.25-1.58.38-1.7.38-1.77.44-1.89.5-2,.51-2,.56-2.08.57-2.08.7-2.09.63-2.14.69-2.21.76-2.15.76-2.14.76-2.15.82-2.15.75-2,.82-2.09.82-2,.82-1.89.83-1.83.75-1.77.82-1.64.76-1.57.76-1.46.76-1.39.69-1.19.69-1.14.64-.95.63-.82.56-.69.57-.57.51-.44.44-.25.38-.13.38V45l.19.25.31.19.45.13.63.13h1.64l1-.07,1.13-.12,1.27-.19L130.4,45l1.52-.26,1.58-.38,1.7-.37,1.77-.45,1.89-.5,2-.51,2-.56,2.08-.57,2.08-.7,2.08-.63,2.15-.69,2.21-.76,2.15-.76,2.14-.75,2.15-.82,2.14-.76,2-.82,2.09-.82,2-.82,1.9-.82,1.83-.76,1.77-.82,1.64-.76,1.57-.76,1.46-.75,1.38-.7,1.2-.69,1.14-.63,1-.64.82-.56.69-.57.57-.51.44-.44.25-.38.13-.38Zm.63,2-.19-.26-.31-.19-.45-.19-.56-.12-.76-.07-.88-.06h-1l-1.2.06-1.27.13-1.38.13-1.52.19-1.64.25-1.7.31-1.77.32-1.9.38-1.95.38-2,.44-2.08.5-2.15.51-2.15.5-2.21.57-2.21.63-2.2.63-2.21.64-2.15.63-2.21.69-2.08.63-2.08.7-2,.69-2,.7-1.9.69-1.83.69-1.7.64-1.58.69-1.51.63-1.39.63-1.26.63-1.14.57-1,.57-.88.5-.7.51-.63.44-.44.44-.25.38-.19.38V43l.19.25.31.19.44.19.57.12.76.07.88.06h1l1.2-.06,1.27-.13,1.38-.13,1.52-.19,1.64-.25,1.7-.31,1.77-.32,1.9-.38,1.95-.38,2-.44,2.08-.5,2.15-.51,2.15-.5,2.21-.57,2.21-.63,2.2-.63,2.21-.63,2.15-.64,2.21-.69,2.08-.63,2.08-.7,2-.69,2-.69,1.89-.7,1.83-.69,1.71-.63,1.58-.7L178.5,30l1.39-.63,1.26-.63,1.14-.57,1-.57.88-.5.7-.51.63-.44.44-.44.25-.38.19-.38Zm.51,2-.19-.25-.26-.25-.44-.19-.63-.19-.69-.13-.89-.06-1-.06h-2.46l-1.39.06-1.51.13-1.64.12-1.71.19-1.83.19-1.95.26-2,.31-2,.32-2.15.31-2.14.38-2.21.44-2.21.44-2.21.45-2.27.5-2.21.51-2.21.5-2.21.51-2.15.56-2.14.57-2.09.57-2,.57-2,.57-1.83.56-1.7.57-1.64.51-1.58.57-1.39.56-1.33.51-1.19.5-1,.51-1,.5-.76.45-.57.37-.5.45-.32.37-.12.32-.07.32.19.25.25.25.45.19.63.19.69.13.89.06,1,.06h2.46l1.39-.06,1.51-.13,1.64-.12,1.71-.19,1.83-.19,1.95-.25,2-.32,2-.32,2.15-.31,2.14-.38,2.21-.44,2.21-.44,2.21-.45L155,38l2.21-.51,2.21-.5,2.21-.51L163.8,36l2.14-.57,2.08-.57,2-.57,2-.57,1.83-.56,1.7-.57,1.64-.51,1.58-.57,1.39-.56,1.32-.51,1.2-.5,1-.51.95-.5.76-.44.57-.38.5-.45.32-.37.12-.32Zm.37,2-.12-.25-.32-.25-.38-.25-.63-.19-.69-.19-.89-.13-1-.12-1.14-.07-1.33-.06h-4.54l-1.71.13-1.83.06-1.95.13-2,.18-2,.19-2.15.19-2.14.26-2.21.31-2.28.25-2.27.32-2.27.38-2.21.38-2.27.38-2.21.37-2.21.38-2.15.44-2.08.45-2,.44-2,.44-1.89.44-1.77.51-1.7.44-1.51.44-1.46.44-1.39.44-1.19.45-1.08.44-.88.44-.82.38-.63.38-.51.38-.31.37-.19.32-.07.32.13.25.32.25.37.25.64.19.69.19.88.13,1,.12,1.14.07,1.33.06h4.54l1.7-.13,1.83-.06,2-.12,2-.19,2-.19,2.15-.19,2.14-.26L148,39l2.27-.25,2.28-.32,2.27-.38,2.21-.38,2.27-.37,2.21-.38,2.21-.38,2.14-.44,2.09-.45,2-.44,2-.44,1.9-.44,1.77-.51,1.7-.44,1.51-.44,1.46-.44,1.38-.44,1.2-.45,1.08-.44.88-.44.82-.38.63-.38.51-.38.31-.37.19-.32Zm.26,2.09-.13-.32-.25-.25-.44-.25-.57-.26-.7-.18-.88-.19-1-.19-1.13-.19-1.27-.13-1.39-.06-1.51-.13-1.64-.06H169.1l-2.09.06-2.14.13-2.15.12-2.21.13-2.27.13-2.27.19-2.27.19-2.34.25-2.21.25-2.27.25-2.21.26-2.15.31-2.14.32-2,.31-2,.32-1.9.31-1.76.38-1.71.32-1.57.38-1.52.37-1.33.32-1.26.38-1.07.38-1,.38-.82.31-.69.38-.51.32-.38.31-.19.32-.06.31.13.32.25.25.44.25L122,38l.69.19.89.18,1,.19,1.13.19,1.27.13,1.39.06,1.51.13,1.64.06h7.51l2.09-.06,2.14-.13,2.15-.12,2.21-.13,2.27-.13,2.27-.19,2.27-.18,2.34-.26,2.21-.25,2.27-.25,2.21-.25,2.14-.32,2.15-.32,2-.31,2-.32,1.89-.31,1.77-.38,1.71-.32,1.57-.38,1.52-.37,1.32-.32,1.27-.38,1.07-.38.95-.38.82-.31.69-.38.51-.32.37-.31.19-.32Zm.12,2.08-.12-.32-.19-.31-.44-.25-.57-.26-.7-.31-.82-.25-1-.19-1.13-.26-1.27-.18L180,30.27l-1.52-.19-1.64-.19-1.7-.13-1.83-.13-2-.06-2-.12-2.08-.07h-2.15L163,29.32h-4.48l-2.27.06-2.27.07-2.27.06-2.34.12-2.21.13-2.27.13-2.15.19-2.14.12-2.09.19-1.95.25-1.9.19-1.83.26-1.7.25-1.64.25-1.52.25-1.39.32-1.19.25-1.14.32-1,.31-.82.26-.7.31-.5.32-.38.31-.25.32-.07.25.13.32.19.31.44.25.57.26.7.31.82.25,1,.19,1.13.26,1.26.19,1.39.19,1.52.18,1.64.19,1.7.13,1.83.13,2,.06,2,.13,2.08.06H143l2.22.06h4.48l2.27-.06,2.27-.06,2.27-.07,2.34-.12,2.21-.13,2.27-.13,2.15-.19,2.14-.12,2.09-.19,2-.25,1.9-.19,1.83-.26,1.7-.25,1.64-.25,1.52-.25,1.38-.32,1.2-.25,1.14-.32,1-.31.82-.25.69-.32.51-.32.38-.31.25-.32Zm0,2-.06-.25-.25-.32-.38-.31-.51-.32-.69-.31-.82-.26-1-.31-1.14-.32-1.2-.25-1.38-.32-1.52-.25-1.64-.25-1.7-.25-1.83-.26-1.9-.19-2-.25-2.09-.19-2.14-.12-2.15-.19L161,29.76l-2.21-.13-2.34-.12-2.27-.06-2.27-.07-2.27-.06h-4.48l-2.22.06h-2.14l-2.08.07-2,.12-2,.06-1.83.13-1.7.13-1.64.19-1.52.19-1.39.19-1.26.18-1.13.26-1,.19-.82.25-.7.31-.57.26-.44.25-.19.31-.13.32.07.25.25.32.38.31.5.32.7.32.82.25,1,.31,1.14.32,1.19.25,1.39.32,1.52.25,1.64.25,1.7.25,1.83.26,1.9.19,1.95.25,2.09.19,2.14.12,2.15.19,2.27.13,2.21.13,2.34.12,2.27.07,2.27.06,2.27.06H163l2.21-.06h2.15l2.08-.06,2-.13,2-.06,1.83-.13,1.7-.13,1.64-.19,1.52-.18,1.38-.19,1.27-.19,1.13-.26,1-.19.82-.25.7-.31.57-.26.44-.25.19-.31Zm-.12,2.08-.07-.31-.19-.32L186.9,36l-.51-.32-.69-.38-.82-.31-.95-.38-1.07-.38-1.27-.38-1.32-.32-1.52-.37-1.57-.38-1.71-.32L173.7,32l-1.89-.31-2-.32-2-.31-2.15-.32-2.14-.31-2.21-.26L159,30l-2.21-.25-2.34-.25-2.27-.19-2.27-.19-2.27-.13-2.21-.13-2.15-.12-2.14-.13-2.09-.06h-7.51l-1.64.06-1.51.13-1.39.06-1.27.13-1.13.19-1,.19-.89.19-.69.18-.57.26-.44.25-.25.25-.13.32.06.31.19.32.38.31.51.32.69.38.82.31,1,.38,1.07.38,1.26.38,1.33.32,1.52.37,1.57.38,1.71.32,1.76.38,1.9.31,2,.32,2,.31,2.14.32,2.15.32,2.21.25,2.27.25,2.21.25,2.34.26,2.27.18,2.27.19,2.27.13,2.21.13,2.15.12L167,39l2.09.06h7.51l1.64-.06,1.51-.13,1.39-.06,1.27-.13,1.13-.19,1-.19.88-.18.7-.19.57-.26.44-.25.25-.25ZM187.27,39l-.06-.32-.19-.32-.31-.37-.51-.38-.63-.38-.82-.38-.88-.44L182.79,36l-1.2-.45-1.38-.44-1.46-.44-1.51-.44-1.7-.44-1.77-.51-1.9-.44-2-.44-2-.44-2.09-.45L163.67,31l-2.21-.38-2.21-.37L157,29.89l-2.21-.38-2.27-.38-2.28-.32L148,28.56l-2.21-.31L143.6,28l-2.15-.19-2-.19-2-.18-2-.13-1.83-.06-1.7-.13h-4.54l-1.33.06-1.14.07-1,.12-.88.13-.69.19-.64.19-.37.25-.32.25-.13.25.07.32.19.32.31.37L122,30l.63.38.82.38.88.44,1.08.44,1.19.45,1.39.44,1.46.44,1.51.44,1.7.44,1.77.51,1.89.44,2,.44,2,.44,2.08.45,2.15.44,2.21.38,2.21.38,2.27.37,2.21.38,2.27.38,2.27.32,2.28.25,2.21.31,2.14.26,2.15.19,2,.19,2,.19,1.95.12,1.83.06,1.71.13h4.54l1.33-.06,1.14-.07,1-.12.89-.13.69-.19.63-.19.38-.25.32-.25Zm-.37,2-.07-.32-.12-.32-.32-.37-.5-.45-.57-.37-.76-.45-.95-.5-1-.51-1.2-.5-1.32-.51-1.39-.56-1.58-.57-1.64-.51-1.7-.57-1.83-.56-2-.57-2-.57-2.08-.57-2.14-.57-2.15-.56-2.21-.51-2.21-.5L155,29.57l-2.27-.5-2.21-.45-2.21-.44-2.21-.44L144,27.36l-2.15-.31-2-.32-2-.31-1.95-.26L134.07,26l-1.71-.19-1.64-.12-1.51-.13-1.39-.06h-2.46l-1,.06-.89.06-.69.13-.63.19-.45.19-.25.25-.19.25.07.32.12.32.32.37.5.45.57.38.76.44,1,.5,1,.51,1.19.5,1.33.51,1.39.56L131,32l1.64.51,1.7.57,1.83.56,2,.57,2,.57,2.09.57,2.14.57,2.15.56,2.21.51,2.21.5,2.21.51,2.27.5,2.21.45,2.21.44,2.21.44,2.14.38,2.15.31,2,.32,2,.32,1.95.25,1.83.19,1.71.19,1.64.12,1.51.13,1.39.06h2.46l1-.06.89-.06.69-.13.63-.19.44-.19.26-.25Zm-.51,2V42.7l-.19-.38-.25-.38-.44-.44-.63-.44-.7-.51-.88-.5-1-.57-1.14-.57-1.26-.63-1.39-.63L177,37l-1.58-.69-1.71-.64L171.87,35,170,34.31l-2-.7-2-.69-2.08-.7-2.08-.63-2.21-.69-2.15-.63-2.21-.64-2.2-.63-2.21-.63-2.21-.57-2.15-.5-2.15-.51-2.08-.5-2-.44-1.95-.38-1.9-.38-1.77-.32-1.7-.31-1.64-.25L129.77,24l-1.38-.13-1.27-.13-1.2-.06h-1l-.88.06-.76.07-.57.12-.44.19-.31.19-.19.26v.31l.19.38.25.38.44.44.63.44.7.51.88.5,1,.57,1.14.57,1.26.63,1.39.63,1.51.63,1.58.7,1.7.63,1.83.69,1.9.7,2,.69,2,.69,2.08.7,2.08.63,2.21.69,2.15.64,2.21.63,2.2.63,2.21.63,2.21.57,2.15.5,2.15.51,2.08.5,2,.44,1.95.38,1.9.38,1.77.32,1.7.31,1.64.25,1.52.19,1.38.13,1.27.13,1.2.06h1l.88-.06.76-.07.56-.12.45-.19.31-.19ZM185.76,45v-.31l-.13-.38-.25-.38-.44-.44-.57-.51-.69-.57-.82-.56-1-.63-1.14-.64-1.2-.69-1.38-.69-1.46-.76-1.57-.76-1.64-.76-1.77-.82-1.83-.75-1.9-.83-2-.82L164,32.85,162,32l-2.14-.75-2.15-.82-2.14-.76-2.15-.76-2.21-.76L149,27.49l-2.08-.63-2.08-.7-2.08-.57-2-.56-2-.51L137,24l-1.77-.44-1.7-.38-1.58-.38-1.52-.25L129,22.31l-1.27-.19L126.62,22l-1-.07H124l-.63.13-.45.13-.31.19-.19.25v.31l.13.38.25.38.44.44.57.51.69.57.82.56.95.64,1.14.63,1.19.69,1.39.7,1.46.75L133,30l1.64.76,1.77.82,1.83.76,1.89.82,2,.82,2.09.82,2,.82,2.15.76,2.15.82,2.14.75,2.15.76,2.21.76,2.14.69,2.09.63,2.08.7,2.08.57,2,.56,2,.51,1.89.5L173,44l1.7.37,1.58.38,1.51.26,1.39.25,1.26.19,1.14.12,1,.07h1.64l.63-.13.45-.13.31-.19Zm-.76,1.9.07-.26-.13-.38-.25-.44-.38-.44-.51-.57-.69-.56-.82-.64-.89-.69-1.07-.69-1.2-.76-1.32-.82-1.39-.82L174.9,39l-1.57-.89-1.71-.94-1.83-.89L168,35.32l-2-.89-1.95-1-2-.94-2.09-.95-2.08-.88-2.08-.95-2.15-.88-2.08-.82-2.08-.82-2.09-.82-2.08-.76-2-.76-2-.69-1.89-.63L137.6,23l-1.7-.57-1.71-.51-1.58-.44-1.45-.38-1.39-.31-1.26-.25-1.13-.19-1-.19-.88-.07h-.69l-.63.07-.51.12-.31.19-.19.25-.07.26.13.38.25.44.38.44.51.57.69.57.82.63.88.69,1.08.7,1.2.75,1.32.82,1.39.82,1.51.82,1.58.89,1.71.95,1.83.88,1.83.95,2,.88,1.95.95,2,.94,2.08.95,2.09.88,2.08,1,2.15.88,2.08.82,2.08.82,2.09.83,2.08.75,2,.76,2,.69,1.89.64,1.83.56,1.7.57,1.71.51,1.58.44,1.45.38,1.39.31,1.26.26,1.13.18,1,.19.89.07h.69l.63-.07.51-.12.31-.19Zm-.88,1.89.06-.32-.06-.31-.19-.44-.38-.51-.5-.57-.63-.63-.76-.69-.89-.7-1-.82L178.63,43l-1.27-.88L176,41.19l-1.52-.95-1.51-1-1.64-1-1.77-1-1.77-1-1.89-1.07-1.89-1-2-1.08-2-1.07-2-1-2-1.07-2.08-1-2-.95-2.08-1-2-.88-2-.95-2-.82L142,23.45l-1.84-.76L138.3,22l-1.71-.7L135,20.73l-1.52-.5L132,19.72l-1.32-.37L129.4,19l-1.14-.26-1-.18-.82-.13-.76-.06H125l-.5.12-.32.13-.19.25-.06.32.06.31.19.44.38.51.5.57.63.63.76.69.89.7,1,.82,1.13.82,1.26.88,1.33.89,1.51.94,1.52,1,1.64,1,1.77,1,1.76,1,1.9,1.07,1.89,1,2,1.08,2,1.07,2,1,2,1.07,2.08,1,2,1,2.08,1,2,.88,2,.95,2,.82,1.89.82,1.83.76,1.83.69,1.71.7,1.64.57,1.51.5,1.46.51,1.32.37,1.26.38,1.14.26,1,.19.82.12.76.06h.63l.5-.12.32-.13Z"/></g></g></svg>